<?xml version="1.0" encoding="UTF-8"?><svg xmlns="http://www.w3.org/2000/svg" xmlns:xlink="http://www.w3.org/1999/xlink" width="375" zoomAndPan="magnify" viewBox="0 0 375 374.999991" height="374.999991" preserveAspectRatio="xMidYMid meet" version="1.0"><path fill="rgb(0%, 0%, 0%)" d="M 250 156.25 C 250 158.296875 249.898438 160.339844 249.699219 162.375 C 249.5 164.414062 249.199219 166.433594 248.800781 168.441406 C 248.398438 170.449219 247.902344 172.433594 247.308594 174.394531 C 246.714844 176.351562 246.027344 178.277344 245.242188 180.167969 C 244.460938 182.058594 243.585938 183.90625 242.621094 185.710938 C 241.65625 187.515625 240.605469 189.269531 239.46875 190.972656 C 238.328125 192.675781 237.113281 194.316406 235.8125 195.898438 C 234.515625 197.480469 233.140625 198.996094 231.695312 200.445312 C 230.246094 201.890625 228.730469 203.265625 227.148438 204.5625 C 225.566406 205.863281 223.925781 207.078125 222.222656 208.21875 C 220.519531 209.355469 218.765625 210.40625 216.960938 211.371094 C 215.15625 212.335938 213.308594 213.210938 211.417969 213.992188 C 209.527344 214.777344 207.601562 215.464844 205.644531 216.058594 C 203.683594 216.652344 201.699219 217.148438 199.691406 217.550781 C 197.683594 217.949219 195.664062 218.25 193.625 218.449219 C 191.589844 218.648438 189.546875 218.75 187.5 218.75 C 185.453125 218.75 183.410156 218.648438 181.375 218.449219 C 179.335938 218.25 177.316406 217.949219 175.308594 217.550781 C 173.300781 217.148438 171.316406 216.652344 169.355469 216.058594 C 167.398438 215.464844 165.472656 214.777344 163.582031 213.992188 C 161.691406 213.210938 159.84375 212.335938 158.039062 211.371094 C 156.234375 210.40625 154.480469 209.355469 152.777344 208.21875 C 151.074219 207.078125 149.433594 205.863281 147.851562 204.5625 C 146.269531 203.265625 144.753906 201.890625 143.304688 200.445312 C 141.859375 198.996094 140.484375 197.480469 139.1875 195.898438 C 137.886719 194.316406 136.671875 192.675781 135.53125 190.972656 C 134.394531 189.269531 133.34375 187.515625 132.378906 185.710938 C 131.414062 183.90625 130.539062 182.058594 129.757812 180.167969 C 128.972656 178.277344 128.285156 176.351562 127.691406 174.394531 C 127.097656 172.433594 126.601562 170.449219 126.199219 168.441406 C 125.800781 166.433594 125.5 164.414062 125.300781 162.375 C 125.101562 160.339844 125 158.296875 125 156.25 C 125 154.203125 125.101562 152.160156 125.300781 150.125 C 125.5 148.085938 125.800781 146.066406 126.199219 144.058594 C 126.601562 142.050781 127.097656 140.066406 127.691406 138.105469 C 128.285156 136.148438 128.972656 134.222656 129.757812 132.332031 C 130.539062 130.441406 131.414062 128.59375 132.378906 126.789062 C 133.34375 124.984375 134.394531 123.230469 135.53125 121.527344 C 136.671875 119.824219 137.886719 118.183594 139.1875 116.601562 C 140.484375 115.019531 141.859375 113.503906 143.304688 112.054688 C 144.753906 110.609375 146.269531 109.234375 147.851562 107.9375 C 149.433594 106.636719 151.074219 105.421875 152.777344 104.28125 C 154.480469 103.144531 156.234375 102.09375 158.039062 101.128906 C 159.84375 100.164062 161.691406 99.289062 163.582031 98.507812 C 165.472656 97.722656 167.398438 97.035156 169.355469 96.441406 C 171.316406 95.847656 173.300781 95.351562 175.308594 94.949219 C 177.316406 94.550781 179.335938 94.25 181.375 94.050781 C 183.410156 93.851562 185.453125 93.75 187.5 93.75 C 189.546875 93.75 191.589844 93.851562 193.625 94.050781 C 195.664062 94.25 197.683594 94.550781 199.691406 94.949219 C 201.699219 95.351562 203.683594 95.847656 205.644531 96.441406 C 207.601562 97.035156 209.527344 97.722656 211.417969 98.507812 C 213.308594 99.289062 215.15625 100.164062 216.960938 101.128906 C 218.765625 102.09375 220.519531 103.144531 222.222656 104.28125 C 223.925781 105.421875 225.566406 106.636719 227.148438 107.9375 C 228.730469 109.234375 230.246094 110.609375 231.695312 112.054688 C 233.140625 113.503906 234.515625 115.019531 235.8125 116.601562 C 237.113281 118.183594 238.328125 119.824219 239.46875 121.527344 C 240.605469 123.230469 241.65625 124.984375 242.621094 126.789062 C 243.585938 128.59375 244.460938 130.441406 245.242188 132.332031 C 246.027344 134.222656 246.714844 136.148438 247.308594 138.105469 C 247.902344 140.066406 248.398438 142.050781 248.800781 144.058594 C 249.199219 146.066406 249.5 148.085938 249.699219 150.125 C 249.898438 152.160156 250 154.203125 250 156.25 Z M 250 156.25 " fill-opacity="1" fill-rule="nonzero"/><path fill="rgb(0%, 0%, 0%)" d="M 250 234.375 L 125 234.375 C 101.746094 234.375 81.695312 247.222656 70.921875 266.074219 C 96.222656 303.484375 139.039062 328.125 187.5 328.125 C 235.960938 328.125 278.777344 303.484375 304.078125 266.074219 C 293.304688 247.222656 273.253906 234.375 250 234.375 Z M 250 234.375 " fill-opacity="1" fill-rule="nonzero"/><path fill="rgb(0%, 0%, 0%)" d="M 187.5 0 C 83.953125 0 0 83.945312 0 187.5 C 0 291.054688 83.953125 375 187.5 375 C 291.046875 375 375 291.054688 375 187.5 C 375 83.945312 291.046875 0 187.5 0 Z M 187.5 343.75 C 101.347656 343.75 31.25 273.660156 31.25 187.5 C 31.25 101.339844 101.347656 31.25 187.5 31.25 C 273.652344 31.25 343.75 101.339844 343.75 187.5 C 343.75 273.660156 273.652344 343.75 187.5 343.75 Z M 187.5 343.75 " fill-opacity="1" fill-rule="nonzero"/></svg>