<svg xmlns="http://www.w3.org/2000/svg" version="1.0" viewBox="0 0 1133.859 1133.858"><path fill="#ECF0F1" d="M685.504,388.212c-0.289,0-0.58-0.083-0.836-0.258c-7.805-5.288-13.014-7.977-13.066-8.004 c-0.734-0.376-1.025-1.277-0.648-2.013c0.377-0.734,1.279-1.025,2.014-0.648c0.217,0.111,5.408,2.788,13.379,8.189 c0.684,0.463,0.861,1.394,0.398,2.077C686.455,387.982,685.984,388.212,685.504,388.212z"/><path fill="#ECF0F1" d="M721.404,624.763c-0.721,0-1.355-0.522-1.473-1.258l-1.045-6.483c-0.131-0.814,0.424-1.582,1.238-1.713 c0.82-0.134,1.584,0.423,1.715,1.238l1.043,6.483c0.131,0.814-0.422,1.582-1.238,1.714 C721.564,624.757,721.484,624.763,721.404,624.763z"/><path fill="#ECF0F1" d="M719.295,611.652c-0.721,0-1.355-0.522-1.475-1.257l-2.529-15.707c-0.131-0.815,0.424-1.583,1.238-1.715 c0.816-0.13,1.584,0.424,1.715,1.239l2.529,15.706c0.131,0.815-0.424,1.583-1.238,1.715 C719.453,611.646,719.373,611.652,719.295,611.652z"/><polygon fill="#fc466b" points="703.551 540.905 844.887 540.905 829.832 627.206 717.383 627.206"/><path fill="#3f5efb" d="M913.952,451.439c-13.519,26.044-28.786,44.752-44.212,58.16c-49.486,42.979-100.609,31.307-100.609,31.307 s13.938-69.658,82.693-87.566C868.932,448.875,889.428,447.619,913.952,451.439z"/><path fill="#000066" d="M869.74,509.6c-49.486,42.979-100.609,31.307-100.609,31.307s13.938-69.658,82.693-87.566 c-20.059,45.577,10.135,22.124,14.406,28.893C870.678,489.279,874.176,493.535,869.74,509.6z"/><path fill="#000066" d="M769.654,541.443l-1.039-1.076c0.066-0.064,6.773-6.517,17.762-15.844 c26.85-22.793,79.104-62.689,127.406-73.813l0.336,1.457c-47.994,11.053-100.029,50.791-126.775,73.496 C776.396,534.957,769.721,541.38,769.654,541.443z"/><rect width="44.491" height="1.496" x="803.644" y="517.371" fill="#000066" transform="matrix(0.9361 0.3517 -0.3517 0.9361 234.9867 -257.3647)"/><rect width="48.138" height="1.495" x="809.404" y="512.253" fill="#000066" transform="matrix(0.9594 0.2822 -0.2822 0.9594 178.6502 -214.3604)"/><rect width="1.495" height="37.842" x="837.579" y="454.194" fill="#000066" transform="matrix(0.9381 0.3463 -0.3463 0.9381 215.6733 -261.0048)"/><path fill="#000066" d="M853.078,478.251l-0.754-1.292l0.377,0.646l-0.381-0.644c1.352-0.884,6.957-14.169,11.596-26.502 l1.402,0.527C863.697,455.291,855.494,476.843,853.078,478.251z"/><rect width="29.894" height="1.495" x="866.361" y="475.061" fill="#000066" transform="matrix(0.8965 0.443 -0.443 0.8965 301.9805 -341.1841)"/><rect width="1.495" height="33.742" x="793.68" y="487.166" fill="#000066" transform="matrix(0.9901 0.1404 -0.1404 0.9901 78.6453 -106.5563)"/><rect width="48.304" height="1.495" x="820.976" y="503.503" fill="#000066" transform="matrix(0.9631 0.2693 -0.2693 0.9631 167.0102 -208.9577)"/><path fill="#3f5efb" d="M841.609,471.487c-22.791,59.019-71.551,72.679-71.551,72.679s-11.598-37.469,4.074-76.305 c10.432-25.843,32.924-52.29,78.924-68.718C853.617,428.687,848.967,452.449,841.609,471.487z"/><path fill="#000066" d="M841.609,471.487c-22.791,59.019-71.551,72.679-71.551,72.679s-11.598-37.469,4.074-76.305 c-0.598,14.887,10.85,15.025,15.246,21.418C795.047,497.521,800.633,471.656,841.609,471.487z"/><path fill="#000066" d="M770.77,544.392l-1.428-0.45c0.027-0.087,2.789-8.795,7.898-21.991 c12.482-32.24,38.865-91.138,75.318-123.364l0.99,1.12c-36.215,32.017-62.48,90.671-74.914,122.784 C773.545,535.639,770.795,544.306,770.77,544.392z"/><rect width="1.496" height="43.67" x="807.587" y="476.084" fill="#000066" transform="matrix(0.1371 0.9906 -0.9906 0.1371 1190.7094 -371.0564)"/><rect width="1.494" height="47.252" x="811.732" y="466.326" fill="#000066" transform="matrix(0.2104 0.9776 -0.9776 0.2104 1120.4988 -407.433)"/><rect width="37.144" height="1.496" x="779.405" y="452.526" fill="#000066" transform="matrix(0.143 0.9897 -0.9897 0.143 1132.5079 -401.3104)"/><path fill="#000066" d="M813.119,450.8l-1.279-0.776l0.639,0.389l-0.641-0.385c0.748-1.405-0.639-15.484-2.416-28.283l1.482-0.206 C811.775,427.823,814.512,448.508,813.119,450.8z"/><rect width="1.495" height="29.344" x="835.567" y="420.788" fill="#000066" transform="matrix(0.0379 0.9993 -0.9993 0.0379 1239.7811 -416.75)"/><rect width="33.122" height="1.496" x="758.039" y="499.766" fill="#000066" transform="matrix(0.3489 0.9372 -0.9372 0.3489 973.4471 -400.0296)"/><rect width="1.495" height="47.415" x="817.685" y="453.237" fill="#000066" transform="matrix(0.2247 0.9744 -0.9744 0.2247 1099.3079 -427.7197)"/><path fill="#3f5efb" d="M658.998,404.996c-0.148-12.175,0.883-25.365,3.342-39.65c112.699,60.769,111.322,147.013,108.189,172.278 c-0.568,4.637-1.203,7.216-1.203,7.216s-67.701-14.663-97.041-77.84v-0.007C664.406,450.037,659.297,429.59,658.998,404.996"/><path fill="#000066" d="M770.529,537.624c-0.568,4.637-1.203,7.216-1.203,7.216s-67.701-14.663-97.041-77.84v-0.007 c0,0,67.139,23.845,80.188,35.511C760.279,509.48,766.664,525.705,770.529,537.624z"/><path fill="#000066" d="M769.328,545.589c-0.41,0-0.443,0-5.836-6.108c-3.059-3.463-7.934-9.089-13.805-16.231 c-27.441-33.389-75.373-98.279-88.08-157.745l1.463-0.313c12.639,59.156,60.418,123.825,87.773,157.108 c11.357,13.821,18.955,21.95,19.027,22.026l-0.543,0.512V545.589z"/><rect width="1.492" height="54.613" x="741.719" y="447.428" fill="#000066" transform="matrix(0.9304 0.3664 -0.3664 0.9304 225.5921 -239.0368)"/><rect width="1.496" height="59.093" x="735.585" y="435.779" fill="#000066" transform="matrix(0.9546 0.2978 -0.2978 0.9546 171.951 -198.1404)"/><rect width="46.454" height="1.497" x="664.244" y="457.844" fill="#000066" transform="matrix(0.9323 0.3616 -0.3616 0.9323 212.3475 -217.559)"/><path fill="#000066" d="M692.607,441.403c-0.957-1.708-17.4-8.912-32.385-14.821l0.549-1.393 c5.244,2.069,31.49,12.537,33.141,15.482L692.607,441.403z"/><rect width="1.494" height="36.697" x="690.866" y="387.54" fill="#000066" transform="matrix(0.8891 0.4576 -0.4576 0.8891 262.4277 -271.5137)"/><rect width="41.42" height="1.495" x="703.857" y="512.329" fill="#000066" transform="matrix(0.9877 0.1565 -0.1565 0.9877 89.1973 -107.0447)"/><rect width="1.493" height="59.296" x="725.073" y="421.203" fill="#000066" transform="matrix(0.9587 0.2845 -0.2845 0.9587 158.2388 -187.845)"/><polygon fill="#c30041" points="814.346 540.905 844.559 540.905 829.504 627.206 807.223 627.206"/><path fill="#3f5efb" d="M769.328,544.841c0,0,15.736-78.657,104.848-64.772C833.02,559.387,769.328,544.841,769.328,544.841z"/><path fill="#000066" d="M769.848,545.379l-1.037-1.076c0.047-0.047,4.906-4.723,12.869-11.48 c19.453-16.513,57.318-45.42,92.328-53.482l0.336,1.457c-34.701,7.992-72.346,36.741-91.697,53.166 C774.725,540.688,769.895,545.333,769.848,545.379z"/><rect width="32.212" height="1.496" x="794.314" y="527.595" fill="#000066" transform="matrix(0.9361 0.3517 -0.3517 0.9361 237.595 -251.2712)"/><rect width="34.852" height="1.494" x="798.485" y="523.891" fill="#000066" transform="matrix(0.9594 0.2822 -0.2822 0.9594 181.2289 -208.9384)"/><rect width="1.495" height="27.398" x="818.676" y="482.062" fill="#000066" transform="matrix(0.9379 0.3468 -0.3468 0.9379 222.804 -253.4247)"/><path fill="#000066" d="M830.207,499.658l-0.752-1.293l-0.02,0.013c1.008-0.779,5.023-10.319,8.324-19.093l1.398,0.527 C837.039,485.445,831.926,498.657,830.207,499.658z"/><rect width="21.644" height="1.495" x="839.721" y="496.964" fill="#000066" transform="matrix(0.8965 0.443 -0.443 0.8965 308.4855 -325.2794)"/><rect width="1.497" height="24.43" x="786.893" y="505.934" fill="#000066" transform="matrix(0.9901 0.1402 -0.1402 0.9901 80.4453 -105.3341)"/><rect width="34.97" height="1.495" x="806.863" y="517.556" fill="#000066" transform="matrix(0.9631 0.2693 -0.2693 0.9631 170.027 -202.8428)"/><path fill="#3f5efb" d="M692.504,511.105c-3.482-6.139-6.551-13.297-9.037-21.641c74.541,2.557,86.432,55.773,86.432,55.773 S719.125,558.035,692.504,511.105"/><path fill="#000066" d="M769.635,545.938c-0.053-0.02-5.322-2.005-13.275-5.582c-19.434-8.74-54.824-26.913-73.479-50.427 l1.17-0.93c18.459,23.266,53.611,41.308,72.922,49.992c7.91,3.558,13.137,5.527,13.189,5.546L769.635,545.938z"/><rect width="26.886" height="1.494" x="729.28" y="519.445" fill="#000066" transform="matrix(0.0848 0.9964 -0.9964 0.0848 1198.0189 -263.9905)"/><rect width="29.09" height="1.495" x="723.415" y="516.635" fill="#000066" transform="matrix(0.1576 0.9875 -0.9875 0.1576 1132.5911 -292.8866)"/><rect width="1.496" height="22.866" x="714.188" y="513.662" fill="#000066" transform="matrix(0.0901 0.9959 -0.9959 0.0901 1173.5074 -234.228)"/><path fill="#000066" d="M695.953,517.313l-0.127-1.489c5.02-0.426,16.846-1.311,18.248-0.355l-0.844,1.236l0.033,0.019 C712.25,516.259,703.666,516.659,695.953,517.313z"/><rect width="1.496" height="18.064" x="704.493" y="491.913" fill="#000066" transform="matrix(0.9999 0.0144 -0.0144 0.9999 7.2657 -10.0748)"/><rect width="1.495" height="20.391" x="742.464" y="530.82" fill="#000066" transform="matrix(0.2991 0.9542 -0.9542 0.2991 1037.1385 -330.0004)"/><rect width="29.189" height="1.497" x="715.565" y="512.549" fill="#000066" transform="matrix(0.1709 0.9853 -0.9853 0.1709 1111.1245 -293.8409)"/><path fill="#c30041" d="M725.152,557.395c-0.367,0-0.688-0.271-0.74-0.647c-0.055-0.409,0.232-0.785,0.641-0.841l93.455-12.645 c0.41-0.053,0.785,0.232,0.842,0.641c0.055,0.409-0.23,0.786-0.641,0.842l-93.455,12.645 C725.219,557.393,725.186,557.395,725.152,557.395z"/><path fill="#c30041" d="M734.176,570.006c-0.369,0-0.689-0.272-0.74-0.647c-0.055-0.409,0.23-0.786,0.641-0.842l86.27-11.673 c0.406-0.056,0.787,0.231,0.842,0.641c0.057,0.409-0.23,0.786-0.639,0.842l-86.271,11.673 C734.242,570.004,734.209,570.006,734.176,570.006z"/><path fill="#c30041" d="M739.811,583.072c-0.369,0-0.689-0.272-0.74-0.647c-0.055-0.409,0.232-0.786,0.641-0.842l82.473-11.159 c0.408-0.056,0.787,0.232,0.842,0.642s-0.23,0.786-0.641,0.841l-82.473,11.159C739.879,583.07,739.844,583.072,739.811,583.072z"/><path fill="#c30041" d="M746.604,595.984c-0.369,0-0.689-0.273-0.74-0.648c-0.057-0.408,0.232-0.785,0.641-0.841l77.518-10.489 c0.41-0.049,0.785,0.231,0.84,0.642c0.057,0.409-0.23,0.785-0.639,0.841l-77.52,10.489 C746.67,595.981,746.637,595.984,746.604,595.984z"/><path fill="#c30041" d="M750.32,609.312c-0.369,0-0.689-0.272-0.74-0.647c-0.057-0.409,0.232-0.786,0.641-0.842l75.639-10.234 c0.408-0.051,0.785,0.231,0.842,0.642c0.055,0.409-0.232,0.785-0.641,0.841l-75.641,10.234 C750.387,609.31,750.354,609.312,750.32,609.312z"/><path fill="#c30041" d="M760.268,621.795c-0.367,0-0.689-0.271-0.74-0.647c-0.055-0.409,0.232-0.785,0.643-0.841l67.527-9.137 c0.412-0.053,0.785,0.232,0.842,0.642c0.055,0.408-0.232,0.785-0.641,0.841l-67.529,9.137 C760.336,621.793,760.303,621.795,760.268,621.795z"/><path fill="#FFF" d="M752.943,466.821c-0.578,0-1.127-0.337-1.373-0.9c-1.547-3.567-3.264-7.146-5.104-10.637 c-0.385-0.73-0.105-1.635,0.625-2.021c0.73-0.385,1.635-0.105,2.02,0.626c1.877,3.557,3.627,7.204,5.203,10.841 c0.33,0.758-0.02,1.639-0.777,1.967C753.344,466.781,753.143,466.821,752.943,466.821z"/><path fill="#FFF" d="M742.545,446.879c-0.502,0-0.994-0.254-1.277-0.714c-2.273-3.705-4.744-7.399-7.344-10.979 c-0.486-0.669-0.338-1.604,0.33-2.089s1.604-0.337,2.09,0.33c2.645,3.644,5.16,7.402,7.475,11.174 c0.432,0.703,0.211,1.625-0.492,2.057C743.082,446.808,742.811,446.879,742.545,446.879z"/><path fill="#FFF" d="M729.646,428.634c-0.438,0-0.871-0.19-1.166-0.558c-9.246-11.476-20.109-22.144-32.293-31.705 c-0.65-0.51-0.764-1.451-0.254-2.1c0.512-0.65,1.451-0.763,2.1-0.254c12.361,9.703,23.389,20.53,32.775,32.183 c0.52,0.644,0.418,1.584-0.225,2.103C730.307,428.525,729.975,428.634,729.646,428.634z"/><path fill="#FFF" d="M751.951,520.485c-0.357,0-0.717-0.127-1.002-0.386c-4.445-4.015-10.951-8.312-19.332-12.771 c-0.73-0.387-1.008-1.293-0.619-2.022c0.387-0.729,1.293-1.005,2.023-0.617c8.598,4.573,15.305,9.013,19.932,13.192 c0.613,0.553,0.662,1.498,0.107,2.111C752.766,520.319,752.359,520.485,751.951,520.485z"/><path fill="#FFF" d="M724.986,505.625c-0.18,0-0.361-0.033-0.537-0.101c-5.98-2.301-12.574-4.556-19.598-6.702 c-0.791-0.241-1.234-1.078-0.994-1.867c0.242-0.79,1.076-1.236,1.869-0.994c7.09,2.168,13.75,4.446,19.797,6.772 c0.77,0.297,1.154,1.162,0.859,1.933C726.152,505.26,725.586,505.625,724.986,505.625z"/><path fill="#FFF" d="M698.963,497.021c-0.135,0-0.273-0.019-0.41-0.058c-4.438-1.264-7.271-1.971-7.299-1.978 c-0.803-0.199-1.291-1.011-1.092-1.813c0.199-0.801,1.01-1.293,1.813-1.09c0.029,0.007,2.906,0.725,7.398,2.003 c0.793,0.227,1.254,1.054,1.027,1.849C700.215,496.592,699.615,497.021,698.963,497.021z"/><path fill="#FFF" d="M846.717,423.137c-0.068,0-0.137-0.004-0.203-0.014c-0.818-0.111-1.393-0.864-1.281-1.683 c0.396-2.933,0.76-5.743,0.846-7.904c0.033-0.826,0.713-1.474,1.553-1.436c0.826,0.032,1.469,0.728,1.436,1.552 c-0.09,2.294-0.463,5.184-0.871,8.189C848.094,422.593,847.451,423.137,846.717,423.137z"/><path fill="#FFF" d="M822.553,420.217c-0.459,0-0.91-0.208-1.205-0.605c-0.49-0.662-0.352-1.6,0.313-2.091 c4.096-3.036,8.053-5.614,11.762-7.663c2.256-1.247,4.135-2.172,5.74-2.826c0.764-0.314,1.639,0.053,1.951,0.82 c0.311,0.764-0.057,1.637-0.822,1.948c-1.496,0.61-3.27,1.485-5.422,2.675c-3.592,1.985-7.438,4.492-11.428,7.448 C823.174,420.121,822.861,420.217,822.553,420.217z"/><path fill="#FFF" d="M803.768,436.955c-0.289,0-0.58-0.083-0.838-0.258c-0.684-0.463-0.863-1.393-0.398-2.076 c0.902-1.333,5.131-5.572,10.383-10.096c0.627-0.539,1.572-0.469,2.109,0.158c0.539,0.625,0.469,1.569-0.156,2.108 c-5.846,5.032-9.373,8.788-9.861,9.507C804.717,436.725,804.246,436.955,803.768,436.955z"/><path fill="#FFF" d="M871.389,457.631c-0.736,0-1.377-0.544-1.48-1.293c-0.111-0.818,0.461-1.572,1.279-1.685 c1.9-0.261,3.787-0.499,5.604-0.708c0.82-0.093,1.563,0.495,1.656,1.314c0.096,0.82-0.494,1.563-1.314,1.657 c-1.795,0.207-3.658,0.442-5.539,0.699C871.523,457.626,871.455,457.631,871.389,457.631z"/><path fill="#FFF" d="M844.924,484.67c-0.709,0-1.34-0.508-1.471-1.23c-0.146-0.813,0.395-1.59,1.209-1.736 c2.035-0.366,4.092-0.688,6.119-0.953c0.82-0.098,1.568,0.469,1.678,1.288c0.107,0.819-0.471,1.569-1.289,1.678 c-1.979,0.259-3.99,0.573-5.98,0.931C845.102,484.663,845.012,484.67,844.924,484.67z"/><path fill="#FFF" d="M827.34,489.151c-0.625,0-1.209-0.396-1.418-1.022c-0.262-0.784,0.162-1.631,0.945-1.893 c0.719-0.239,1.449-0.476,2.189-0.707c0.789-0.244,1.627,0.194,1.873,0.983c0.246,0.788-0.195,1.627-0.984,1.872 c-0.721,0.225-1.43,0.456-2.131,0.689C827.658,489.126,827.498,489.151,827.34,489.151z"/><path fill="#FFF" d="M799.068,502.984c-0.475,0-0.941-0.227-1.232-0.646c-0.469-0.681-0.299-1.611,0.383-2.08 c0.563-0.389,1.184-0.809,1.865-1.253c0.691-0.452,1.617-0.256,2.068,0.436c0.451,0.692,0.256,1.618-0.436,2.069 c-0.658,0.43-1.258,0.835-1.801,1.21C799.656,502.898,799.359,502.984,799.068,502.984z"/><path fill="#FFF" d="M795.322,505.746c-0.447,0-0.893-0.202-1.188-0.586c-0.502-0.654-0.379-1.594,0.277-2.096l0.17-0.134 c0.518-0.406,1.727-1.356,3.635-2.673c0.68-0.469,1.611-0.299,2.082,0.381c0.469,0.681,0.297,1.611-0.383,2.081 c-1.832,1.264-2.992,2.175-3.488,2.563l-0.195,0.152C795.961,505.645,795.641,505.746,795.322,505.746z"/><path fill="#FFF" d="M715.398,587.45c-0.721,0-1.357-0.522-1.475-1.258l-3.844-23.87c-0.131-0.815,0.424-1.583,1.238-1.715 c0.816-0.133,1.584,0.424,1.715,1.24l3.844,23.87c0.131,0.815-0.424,1.582-1.238,1.714 C715.557,587.444,715.477,587.45,715.398,587.45z"/><path fill="#FFF" d="M710.578,557.515c-0.721,0-1.355-0.522-1.473-1.258l-1.457-9.042c-0.131-0.814,0.424-1.582,1.24-1.714 c0.816-0.129,1.582,0.424,1.713,1.239l1.455,9.042c0.131,0.814-0.422,1.582-1.238,1.714 C710.738,557.509,710.658,557.515,710.578,557.515z"/><path fill="#000066" d="M674.57,472.778c-0.334,0-0.664-0.148-0.885-0.433c-2.705-3.473-5.111-8.408-7.15-14.67 c-0.191-0.59,0.131-1.223,0.719-1.414c0.588-0.194,1.223,0.13,1.414,0.719c1.959,6.015,4.242,10.721,6.787,13.986 c0.381,0.488,0.293,1.193-0.195,1.574C675.055,472.701,674.813,472.778,674.57,472.778z"/><path fill="#000066" d="M664.463,446.479c-0.518,0-0.984-0.361-1.096-0.889c-1.852-8.76-3.27-19.218-4.217-31.083 c-0.051-0.617,0.41-1.158,1.029-1.207c0.611-0.039,1.156,0.411,1.207,1.029c0.939,11.769,2.344,22.13,4.176,30.796 c0.127,0.605-0.26,1.201-0.865,1.33C664.617,446.471,664.541,446.479,664.463,446.479z"/><path fill="#000066" d="M659.408,401.642c-0.598,0-1.094-0.47-1.119-1.071c-0.623-13.781-0.428-24.053-0.428-24.154 c0.014-0.611,0.514-1.1,1.123-1.1c0,0,0.014,0,0.021,0c0.619,0.013,1.111,0.524,1.1,1.144c-0.002,0.102-0.195,10.306,0.424,24.01 c0.027,0.618-0.451,1.143-1.07,1.17C659.441,401.641,659.424,401.642,659.408,401.642z"/><path fill="#000066" d="M724.947,542.033c-0.15,0-0.301-0.029-0.445-0.094c-3.475-1.505-6.871-3.383-10.094-5.581 c-0.512-0.349-0.643-1.047-0.295-1.56c0.35-0.51,1.047-0.644,1.561-0.294c3.105,2.118,6.375,3.928,9.719,5.378 c0.568,0.246,0.83,0.906,0.584,1.475C725.793,541.78,725.381,542.033,724.947,542.033z"/><path fill="#000066" d="M703.865,526.957c-0.297,0-0.594-0.117-0.814-0.351c-13.053-13.793-18.387-29.419-18.607-30.077 c-0.197-0.588,0.119-1.223,0.707-1.42c0.586-0.195,1.223,0.119,1.42,0.706c0.053,0.157,5.41,15.83,18.109,29.249 c0.426,0.449,0.406,1.159-0.043,1.586C704.42,526.855,704.143,526.957,703.865,526.957z"/><path fill="#000066" d="M822.795,414.454c-0.393,0-0.773-0.207-0.979-0.575c-0.303-0.54-0.109-1.224,0.432-1.525 c11.252-6.277,18.826-9.701,18.9-9.736c0.566-0.253,1.23-0.001,1.484,0.563c0.254,0.565,0.002,1.229-0.563,1.484 c-0.074,0.032-7.57,3.422-18.729,9.648C823.168,414.409,822.98,414.454,822.795,414.454z"/><path fill="#000066" d="M794.932,435.622c-0.275,0-0.553-0.101-0.77-0.306c-0.449-0.424-0.473-1.134-0.047-1.585 c2.883-3.063,5.988-5.986,9.225-8.687c0.477-0.398,1.184-0.333,1.58,0.143c0.396,0.475,0.334,1.183-0.143,1.579 c-3.168,2.644-6.207,5.505-9.029,8.503C795.527,435.504,795.229,435.622,794.932,435.622z"/><path fill="#000066" d="M783.807,449.7c-0.213,0-0.426-0.06-0.615-0.185c-0.52-0.34-0.662-1.035-0.322-1.553 c2.064-3.141,4.336-6.213,6.748-9.133c0.395-0.479,1.1-0.546,1.578-0.15c0.479,0.395,0.545,1.103,0.15,1.579 c-2.361,2.858-4.582,5.864-6.602,8.937C784.529,449.523,784.172,449.7,783.807,449.7z"/><path fill="#000066" d="M774.133,468.982c-0.105,0-0.213-0.016-0.32-0.048c-0.594-0.177-0.93-0.802-0.754-1.395 c0.053-0.176,1.322-4.372,4.611-10.717c0.285-0.549,0.963-0.763,1.512-0.479c0.549,0.285,0.764,0.963,0.48,1.513 c-3.184,6.138-4.441,10.284-4.453,10.325C775.063,468.668,774.617,468.982,774.133,468.982z"/><path fill="#000066" d="M829.951,482.933c-0.492,0-0.943-0.327-1.08-0.824c-0.164-0.597,0.188-1.215,0.783-1.379 c5.797-1.597,11.918-2.693,18.195-3.261c0.615-0.049,1.162,0.398,1.219,1.017c0.055,0.617-0.4,1.161-1.018,1.218 c-6.145,0.555-12.135,1.628-17.801,3.189C830.15,482.919,830.051,482.933,829.951,482.933z"/><path fill="#000066" d="M798.563,498.691c-0.33,0-0.658-0.145-0.879-0.424c-0.385-0.485-0.305-1.191,0.182-1.576 c5.18-4.11,10.902-7.648,17.004-10.516c0.563-0.264,1.23-0.022,1.492,0.538c0.264,0.562,0.023,1.229-0.537,1.492 c-5.947,2.794-11.52,6.239-16.564,10.242C799.053,498.612,798.807,498.691,798.563,498.691z"/><path fill="#000066" d="M782.51,516.146c-0.188,0-0.377-0.047-0.551-0.146c-0.539-0.305-0.729-0.989-0.424-1.528 c0.119-0.21,2.988-5.215,9.359-11.576c0.439-0.438,1.148-0.438,1.586,0.001c0.439,0.438,0.438,1.148,0,1.586 c-6.158,6.147-8.965,11.047-8.992,11.095C783.281,515.941,782.9,516.146,782.51,516.146z"/><path fill="#000066" d="M850.893,1004.29c0,5.564-4.511,10.076-10.076,10.076H135.892c-5.565,0-10.076-4.512-10.076-10.076V630.268 c0-5.564,4.511-10.076,10.076-10.076h704.924c5.565,0,10.076,4.511,10.076,10.076V1004.29z"/><rect width="704.924" height="374.022" x="135.892" y="630.268" fill="#3f5efb"/><path fill="#FFF" d="M750.312,769.797c0,3.374-2.735,6.109-6.109,6.109H227.974c-3.374,0-6.109-2.735-6.109-6.109l0,0 c0-3.374,2.735-6.109,6.109-6.109h516.228C747.576,763.688,750.312,766.423,750.312,769.797L750.312,769.797z"/><path fill="#FFF" d="M750.312,815.101c0,3.374-2.735,6.109-6.109,6.109H227.974c-3.374,0-6.109-2.735-6.109-6.109l0,0 c0-3.374,2.735-6.109,6.109-6.109h516.228C747.576,808.991,750.312,811.727,750.312,815.101L750.312,815.101z"/><path fill="#FFF" d="M750.312,862.964c0,3.374-2.735,6.109-6.109,6.109H227.974c-3.374,0-6.109-2.735-6.109-6.109l0,0 c0-3.374,2.735-6.109,6.109-6.109h516.228C747.576,856.854,750.312,859.59,750.312,862.964L750.312,862.964z"/><path fill="#FFF" d="M750.312,905.708c0,3.374-2.735,6.109-6.109,6.109H227.974c-3.374,0-6.109-2.735-6.109-6.109l0,0 c0-3.374,2.735-6.11,6.109-6.11h516.228C747.576,899.598,750.312,902.333,750.312,905.708L750.312,905.708z"/><path fill="#FFF" d="M593.167,720.119c0,5.564-4.511,10.076-10.077,10.076H405.564c-5.565,0-10.076-4.512-10.076-10.076v-40.328 c0-5.565,4.511-10.076,10.076-10.076h177.526c5.565,0,10.077,4.511,10.077,10.076V720.119z"/><path fill="#ECF0F1" d="M406.23,962.953l23.568-23.568c1.76-1.76,1.76-4.612,0-6.371l-0.29-0.29c-1.759-1.76-4.612-1.76-6.371,0 l-25.402,25.4c-0.604,0.218-1.172,0.563-1.658,1.048l-0.289,0.29c-0.957,0.957-1.389,2.238-1.305,3.491 c-0.084,1.252,0.348,2.532,1.305,3.489l0.29,0.29c0.484,0.484,1.054,0.831,1.657,1.048l25.401,25.401 c1.759,1.76,4.612,1.759,6.371,0l0.29-0.29c1.76-1.76,1.76-4.612,0-6.371L406.23,962.953z"/><path fill="#FFF" d="M571.346,962.953l-23.567,23.567c-1.759,1.76-1.759,4.612,0,6.371l0.29,0.29 c1.759,1.759,4.612,1.759,6.372,0l25.4-25.401c0.605-0.217,1.174-0.563,1.657-1.047l0.291-0.291 c0.957-0.956,1.389-2.237,1.304-3.49c0.085-1.252-0.348-2.533-1.305-3.489l-0.29-0.29c-0.484-0.485-1.053-0.831-1.657-1.049 l-25.4-25.4c-1.76-1.76-4.612-1.76-6.372,0l-0.29,0.29c-1.759,1.759-1.759,4.611,0,6.371L571.346,962.953z"/><path fill="#000066" d="M458.534,407.036c-16.27-6.079-37.78-6.04-64.399,12.69c-12.96,9.12-19.63,19.67-22.26,30.48 c-2.85,11.68-0.99,23.649,2.75,34.409c1.77,5.091,54.656-12.372,39.42,25.29l-103.24,46.61v-1.07c0,0-53.811-13.689-93.511-16.2 c0.57-2.829-0.32-5.569,0-8.21c8.15-67.34-50.27-77.239-86.39-64.34c-18.8,6.721-27.76,21.601-32.02,35.09 c-2.33-34.319,18.57-100.279,27.62-121.59c7.16-16.85,39.85-26.45,61.48-32.12c12.18,27.891,45.15,95.101,84.84,108.15 c44.84,14.75,55.101-93.52,58.24-134.34c0.81,0.109,1.23,0.2,1.23,0.2s33.449-7.78,55.75-1.36 C405.334,325.696,440.664,377.946,458.534,407.036z"/><path fill="#000066" d="M264.954,805.167c-11.76,5.38-21.41,9.859-28.11,13.369c-5.58,2.931-10.88,5.61-15.9,8.12 c-33.88,16.99-55.49,26.75-70.55,57.801c-17.29,35.659-45.38,46.46-45.38,46.46s-36.74,1.079-70.66-24.851 c-33.92-25.939-12.55-82.13,0-101.58s60.93-48.63,98.75-98.34c1.59-2.08,3.35-4.22,5.28-6.41c4.2-4.8,9.189-9.84,14.84-15.08 C163.264,714.366,194.264,785.846,264.954,805.167z"/><path fill="#fc466b" d="M507.004,643.476c-19.54,28.96-50.13,55.11-84.04,78c-54.84,37.02-118.38,65.53-158.01,83.69 c-8.02-2.19-15.53-5.051-22.55-8.471c-54.9-26.529-80.28-85.7-89.18-112.04c36.25-33.609,99.33-75.26,155.11-112.31h2.47 c0,0,0.729-4.44,10.74-2.771l-3.2-3.89c15.91-10.58,31.02-20.71,44.51-30.08l0.01-0.01c5.47-3.79,10.66-7.46,15.54-10.99 c4.39-3.18,8.97-5.84,13.69-8.02c7.08-3.28,14.46-5.471,21.95-6.681c0.52,1.021,1.199,1.71,2.05,2.021 c1.81,0.66,4.149-0.46,6.729-2.98c1.8-0.109,3.601-0.17,5.4-0.17c-2.33,10.681-1.89,18.4,1.81,20.12 c3.601,1.67,9.521-2.66,15.95-10.85c0.19,0.989,0.6,1.75,1.25,2.27c2.18,1.73,6.59,0.28,12.03-3.51c0.09,0.31,0.229,0.59,0.43,0.82 c1.22,1.46,4.271,1.17,8.33-0.49c3.67,1.58,7.25,3.37,10.7,5.359c12,6.9,22.51,16.131,30.33,27.07 C526.854,574.466,530.794,608.216,507.004,643.476z"/><path fill="#ECF0F1" d="M310.804,573.346h-2.47c-0.44,0-0.829-0.288-0.957-0.709c-0.128-0.421,0.034-0.876,0.4-1.121 c0.822-0.552,1.655-1.104,2.478-1.646c0.308-0.202,0.7-0.218,1.024-0.044c0.323,0.174,0.525,0.513,0.525,0.88v1.64 C311.804,572.899,311.356,573.346,310.804,573.346z"/><path fill="#ECF0F1" d="M445.984,519.046c-0.075,0-0.151-0.009-0.226-0.025c-0.379-0.088-0.673-0.389-0.753-0.77 c-0.409-1.949-0.066-4.625,1.019-7.955c0.156-0.479,0.646-0.769,1.138-0.673c1.195,0.228,2.438,0.492,3.799,0.809 c0.319,0.073,0.582,0.299,0.703,0.604c0.121,0.304,0.086,0.648-0.095,0.922c-1.599,2.418-3.212,4.674-4.796,6.704 C446.58,518.908,446.288,519.046,445.984,519.046z M447.662,511.76c-0.367,1.244-0.613,2.376-0.735,3.376 c0.72-0.985,1.443-2.012,2.165-3.075C448.603,511.954,448.128,511.854,447.662,511.76z"/><path fill="#ECF0F1" d="M459.264,517.806c-0.109,0-0.218-0.018-0.324-0.054c-0.302-0.104-0.536-0.345-0.631-0.648 c-0.299-0.959-0.227-2.113,0.221-3.529c0.081-0.257,0.263-0.47,0.503-0.591c0.24-0.12,0.52-0.141,0.773-0.054 c0.854,0.291,1.699,0.583,2.544,0.885c0.342,0.122,0.59,0.419,0.65,0.777c0.06,0.357-0.079,0.72-0.363,0.946 c-0.895,0.713-1.837,1.416-2.802,2.088C459.666,517.745,459.466,517.806,459.264,517.806z"/><path fill="#ECF0F1" d="M488.064,459.946c-0.02,0.28-0.04,0.66-0.08,1.141c-5.64,2.609-13.41,9.12-21.15,17.97 c6.59-18.08,7.98-32.811,2.68-35.26c-5.95-2.761-18.26,10.899-28.67,31.239c5.88-17.869,6.729-33.04,1.67-34.899 c-2.72-1-6.65,2.05-10.8,7.82c-8.03-7.74-30.08-26.091-49.53-15.721c-13.26,6.74,27.49,18.55,42.22,28.26 c-0.79,1.641-1.58,3.351-2.34,5.12l-0.28-0.35l-40.899,33.63c-2.311-4.38-4.49-9.189-6.26-14.28 c-3.74-10.76-5.6-22.729-2.75-34.409c2.63-10.811,9.3-21.36,22.26-30.48c26.62-18.73,48.13-18.77,64.399-12.69 c5.19,8.46,8.9,14.96,10.271,17.771C474.894,437.306,488.404,454.196,488.064,459.946z"/><path fill="#ECF0F1" d="M485.674,505.796c-1.22,1.02-2.44,1.989-3.641,2.91c-5.12,3.89-10.041,6.81-14.01,8.43 c-4.06,1.66-7.11,1.95-8.33,0.49c-0.201-0.23-0.34-0.511-0.43-0.82c0.89-0.62,1.81-1.3,2.75-2.05c-0.84-0.3-1.68-0.59-2.53-0.88 c-0.37,1.17-0.46,2.159-0.22,2.93c-5.44,3.79-9.85,5.24-12.03,3.51c-0.65-0.52-1.06-1.28-1.25-2.27c1.56-2,3.15-4.221,4.75-6.641 c-1.25-0.29-2.5-0.56-3.76-0.8c-1,3.07-1.37,5.63-0.99,7.44c-6.43,8.189-12.35,12.52-15.95,10.85c-3.7-1.72-4.14-9.439-1.81-20.12 c0.83-3.81,2.01-8.01,3.53-12.439c-3.03,5.51-6.12,9.88-8.93,12.609c-2.581,2.521-4.92,3.641-6.729,2.98 c-0.851-0.311-1.53-1-2.05-2.021c-1.52-2.96-1.66-8.71-0.5-15.979c1-6.311,2.96-13.76,5.83-21.55c0.86-2.33,1.76-4.591,2.69-6.761 c0.76-1.77,1.55-3.479,2.34-5.12c-14.729-9.71-55.479-21.52-42.22-28.26c19.45-10.37,41.5,7.98,49.53,15.721 c4.149-5.771,8.08-8.82,10.8-7.82c5.06,1.859,4.21,17.03-1.67,34.899c10.41-20.34,22.72-34,28.67-31.239 c5.3,2.449,3.91,17.18-2.68,35.26c7.74-8.85,15.51-15.36,21.15-17.97c3.09-1.44,5.54-1.7,6.99-0.54 c3.53,2.81,0.16,13.199-7.62,25.38c-0.74,0.43-1.5,0.899-2.27,1.399c-0.1,0.82-0.21,1.641-0.32,2.471 c0.91-1.311,1.77-2.59,2.59-3.87c7.03-4.16,12.73-5.76,14.52-3.62C504.574,485.526,497.324,496.046,485.674,505.796z"/><path fill="#ECF0F1" d="M331.064,321.886c-3.14,40.82-13.4,149.09-58.24,134.34c-39.689-13.05-72.66-80.26-84.84-108.15 c10.04-2.64,17.69-4.439,19.3-5.72c5.09-4.06,28.03-15.21,19.24-18.25c-8.781-3.04-19.24-24.12-19.24-24.12 c26.25,7.03,70.13-12.97,99.79-25.89c-0.84,1.72-1.59,2.71-1.81,2.71c0.66,0.12,10.29,1.3,4.979,10.81 c-3.879,5.08-11.059,6.42-11.059,6.42s-3.76,18.921-5.941,21.971c-2.169,3.04-0.149,10.13,14.721,7.09 C319.684,320.696,328.044,321.457,331.064,321.886z"/><path fill="#000066" d="M307.084,274.096h-0.01c-29.66,12.92-73.54,32.92-99.79,25.89c-8.439,0.75-13.66,0.94-13.66,0.94 s-2.16-6.49,0-18.37c2.8-29.43,13.49-45.54,24.71-54.33c-5.06-7.91-10.44-23,7.52-37.92c26.02-21.63,58.12-4.74,64.2,13.17 c4.39,12.93,3.68,19.16,1.28,23.54c8.22,6.27,16.27,15.74,18.659,29.52C310.993,264.026,308.824,270.586,307.084,274.096z"/><path fill="#ECF0F1" d="M305.264,277.806h-0.03c-0.552,0-1-0.447-1-1s0.448-1,1-1s1.015,0.447,1.015,1 S305.816,277.806,305.264,277.806z"/><path fill="#fc466b" d="M484.064,908.207c-13.59,11-28.49,19.109-43.96,24.96c-41.97,15.88-88.13,15.159-123.56,10.54 c-25.82-31.2-59.29-70.16-95.6-117.051c5.021-2.51,10.32-5.189,15.9-8.12c6.7-3.51,16.35-7.989,28.11-13.369 c31.22-14.311,77.27-35.03,122.23-61.29c12.11-7.07,24.14-14.54,35.78-22.4C430.444,761.786,459.104,840.966,484.064,908.207z"/><path fill="#000066" d="M490.794,1098.416c0,0-116.71,17.291-142.64,0c-25.939-17.289-10.81-34.58,6.48-49.709 c17.29-15.131,25.93-21.611-8.65-68.081c-8.03-10.79-17.98-23.091-29.44-36.92c48.49,6.319,117.07,5.35,167.52-35.5 c18.929,50.979,35.73,95.1,39.57,110.239C533.784,1058.426,490.794,1098.416,490.794,1098.416z"/><path fill="#ECF0F1" d="M228.564,531.036c-2.93-0.26-5.84-0.439-8.72-0.52c-4.11-7.7-13.55-18.19-25.88-28.12 c-1.91-1.54-3.83-3.01-5.721-4.4c6.961-9.289,8.401-20.039,2.821-25.859c-6.59-6.87-20.46-4.25-31,5.85 c-1.42,1.36-2.71,2.79-3.86,4.26c-2.39-0.14-4.18,0.37-5.17,1.61c-1.24,1.54-1.12,4.021,0.141,7.16 c-1.04,2.68-1.601,5.33-1.67,7.81c-7.96-3.75-14.8-4.39-17.52-1.01c-2.29,2.851-1.17,7.95,2.47,13.67 c-4.7-1.319-8.461-1.02-10.25,1.2c-1.13,1.41-1.34,3.43-0.75,5.82c-3.81-0.75-6.83-0.271-8.37,1.649 c-3.71,4.61,2.5,15.771,13.86,24.92c11.37,9.15,23.6,12.82,27.31,8.21c0.84-1.05,1.17-2.43,1.04-4.05 c1.14,3.351-0.84,4.3-10.44,14.74c-4.361,4.74-9.39,7.29-14.34,8.53c0.37-0.95,0.59-1.431,0.59-1.431s-25.461-21.84-31.26-55.72 c-0.659-3.85-2.59-8.16-2.96-13.57c4.26-13.489,13.22-28.369,32.02-35.09C167.024,453.796,236.714,463.696,228.564,531.036z"/><path fill="#fc466b" d="M308.334,572.346c-16.07,10.68-32.74,21.729-49.21,32.86c-40.69,27.52-80.09,55.52-105.9,79.449 c-5.65,5.24-10.64,10.28-14.84,15.08c-12.37-31.7-15.271-59.479-14.48-81.029c0.91-24.841,6.72-41.421,8.61-46.2 c4.67-1.17,9.42-3.511,13.6-7.761c0.25-0.25,0.5-0.51,0.74-0.77c9.6-10.44,11.58-11.39,10.44-14.74 c-0.04-0.56-0.14-1.149-0.29-1.77c3.82,0.76,6.84,0.27,8.38-1.65c1.84-2.28,1.24-6.16-1.21-10.609 c6.149,2.149,11.18,2.09,13.42-0.69c2.89-3.59,0.35-10.771-5.8-18.24c2.07,1.86,4.25,3.72,6.53,5.55 c5.351,4.301,10.68,8.051,15.69,11.101c4.28,2.62,8.32,4.72,11.93,6.24c7.53,3.18,13.21,3.829,15.32,1.199 c0.32-0.399,0.54-0.859,0.68-1.38c1.75,0.061,3.51,0.15,5.29,0.26c39.7,2.511,83.57,16.2,83.57,16.2h-143.67v16.9H308.334z"/><path fill="#ECF0F1" d="M226.865,542.036c-0.07,0-0.141-0.007-0.212-0.022c-0.54-0.117-0.883-0.649-0.766-1.189 c0.108-0.503,0.21-1.005,0.312-1.503l0.056-0.274c0.11-0.54,0.637-0.893,1.179-0.78c0.542,0.109,0.891,0.638,0.781,1.179 l-0.056,0.273c-0.103,0.507-0.206,1.018-0.317,1.529C227.74,541.715,227.325,542.036,226.865,542.036z"/><path fill="#ECF0F1" d="M171.794,517.276c-0.237,0-0.476-0.084-0.666-0.254c-1.57-1.399-3.096-2.823-4.534-4.231 c-1.687-1.639-3.345-3.341-4.926-5.057c-0.354-0.386-0.352-0.979,0.006-1.361c0.358-0.382,0.95-0.424,1.358-0.095 c1.897,1.531,3.76,3.203,5.537,4.97c1.414,1.423,2.721,2.856,3.892,4.266c0.216,0.184,0.353,0.457,0.353,0.763c0,0.553-0.448,1-1,1 C171.807,517.277,171.8,517.277,171.794,517.276z"/><path fill="#ECF0F1" d="M171.794,517.276c-0.237,0-0.476-0.084-0.666-0.254c-1.57-1.399-3.096-2.823-4.534-4.231 c-1.687-1.639-3.345-3.341-4.926-5.057c-0.354-0.386-0.352-0.979,0.006-1.361c0.358-0.382,0.95-0.424,1.358-0.095 c1.897,1.531,3.76,3.203,5.537,4.97c1.414,1.423,2.721,2.856,3.892,4.266c0.216,0.184,0.353,0.457,0.353,0.763c0,0.553-0.448,1-1,1 C171.807,517.277,171.8,517.277,171.794,517.276z"/><path fill="#ECF0F1" d="M221.944,538.986c-0.14,0.521-0.36,0.98-0.68,1.38c-2.11,2.63-7.79,1.98-15.32-1.199 c-3.61-1.521-7.65-3.62-11.93-6.24c-5.01-3.05-10.34-6.8-15.69-11.101c-2.28-1.83-4.46-3.689-6.53-5.55 c-1.18-1.43-2.5-2.88-3.93-4.319c-1.67-1.66-3.49-3.311-5.46-4.9c1.51,1.64,3.15,3.33,4.89,5.02c1.43,1.4,2.93,2.801,4.5,4.2 c6.15,7.47,8.69,14.65,5.8,18.24c-2.24,2.78-7.271,2.84-13.42,0.69c2.45,4.449,3.05,8.329,1.21,10.609 c-1.54,1.92-4.561,2.41-8.38,1.65c0.15,0.62,0.25,1.21,0.29,1.77c0.13,1.62-0.2,3-1.04,4.05c-3.71,4.61-15.94,0.94-27.31-8.21 c-11.36-9.149-17.57-20.31-13.86-24.92c1.54-1.92,4.56-2.399,8.37-1.649c-0.59-2.391-0.38-4.41,0.75-5.82 c1.789-2.22,5.55-2.52,10.25-1.2c-3.64-5.72-4.76-10.819-2.47-13.67c2.72-3.38,9.56-2.74,17.52,1.01 c0.07-2.479,0.63-5.13,1.67-7.81c-1.26-3.14-1.38-5.62-0.141-7.16c0.99-1.24,2.78-1.75,5.17-1.61c1.15-1.47,2.44-2.899,3.86-4.26 c10.54-10.1,24.41-12.72,31-5.85c5.58,5.82,4.14,16.57-2.821,25.859c1.891,1.391,3.811,2.86,5.721,4.4 c12.33,9.93,21.77,20.42,25.88,28.12C221.734,534.026,222.504,536.957,221.944,538.986z"/><path fill="#ECF0F1" d="M167.294,513.076c-0.259,0-0.509-0.1-0.697-0.282c-1.69-1.642-3.348-3.344-4.929-5.06 c-0.354-0.386-0.352-0.979,0.006-1.361c0.358-0.382,0.95-0.424,1.358-0.095c1.897,1.531,3.76,3.203,5.537,4.97 c0.254,0.253,0.354,0.622,0.26,0.969c-0.093,0.347-0.364,0.616-0.711,0.707c-0.224,0.059-0.448,0.106-0.672,0.141 C167.396,513.072,167.345,513.076,167.294,513.076z"/><path fill="#ECF0F1" d="M459.264,517.806c-0.109,0-0.218-0.018-0.324-0.054c-0.302-0.104-0.536-0.345-0.631-0.648 c-0.299-0.959-0.227-2.113,0.221-3.529c0.081-0.257,0.263-0.47,0.503-0.591c0.24-0.12,0.52-0.141,0.773-0.054 c0.854,0.291,1.699,0.583,2.544,0.885c0.342,0.122,0.59,0.419,0.65,0.777c0.06,0.357-0.079,0.72-0.363,0.946 c-0.895,0.713-1.837,1.416-2.802,2.088C459.666,517.745,459.466,517.806,459.264,517.806z"/><path fill="#ECF0F1" d="M484.764,490.796c-0.121,0-0.243-0.021-0.36-0.067c-0.431-0.167-0.691-0.606-0.631-1.063l0.039-0.292 c0.096-0.728,0.192-1.448,0.28-2.169c0.036-0.294,0.2-0.557,0.448-0.718c0.802-0.521,1.579-1,2.313-1.426 c0.399-0.232,0.906-0.16,1.224,0.174c0.319,0.334,0.369,0.842,0.12,1.23c-0.792,1.236-1.646,2.513-2.611,3.901 C485.395,490.642,485.084,490.796,484.764,490.796z"/><path fill="#c30041" d="M310.804,555.446h-143.67v15.15c-7.45-2.15-14.561-4.11-21.021-5.851c0.25-0.25,0.5-0.51,0.74-0.77 c9.6-10.44,11.58-11.39,10.44-14.74c-0.04-0.56-0.14-1.149-0.29-1.77c3.82,0.76,6.84,0.27,8.38-1.65 c1.84-2.28,1.24-6.16-1.21-10.609c6.149,2.149,11.18,2.09,13.42-0.69c2.89-3.59,0.35-10.771-5.8-18.24 c2.07,1.86,4.25,3.72,6.53,5.55c5.351,4.301,10.68,8.051,15.69,11.101c4.28,2.62,8.32,4.72,11.93,6.24 c7.53,3.18,13.21,3.829,15.32,1.199c0.32-0.399,0.54-0.859,0.68-1.38c1.75,0.061,3.51,0.15,5.29,0.26 C266.934,541.756,310.804,555.446,310.804,555.446z"/><path fill="#ECF0F1" d="M459.264,517.806c-0.109,0-0.218-0.018-0.324-0.054c-0.302-0.104-0.536-0.345-0.631-0.648 c-0.299-0.959-0.227-2.113,0.221-3.529c0.081-0.257,0.263-0.47,0.503-0.591c0.24-0.12,0.52-0.141,0.773-0.054 c0.854,0.291,1.699,0.583,2.544,0.885c0.342,0.122,0.59,0.419,0.65,0.777c0.06,0.357-0.079,0.72-0.363,0.946 c-0.895,0.713-1.837,1.416-2.802,2.088C459.666,517.745,459.466,517.806,459.264,517.806z"/><path fill="#ECF0F1" d="M484.764,490.796c-0.121,0-0.243-0.021-0.36-0.067c-0.431-0.167-0.691-0.606-0.631-1.063l0.039-0.292 c0.096-0.728,0.192-1.448,0.28-2.169c0.036-0.294,0.2-0.557,0.448-0.718c0.802-0.521,1.579-1,2.313-1.426 c0.399-0.232,0.906-0.16,1.224,0.174c0.319,0.334,0.369,0.842,0.12,1.23c-0.792,1.236-1.646,2.513-2.611,3.901 C485.395,490.642,485.084,490.796,484.764,490.796z"/><path fill="#3f5efb" d="M422.064,465.616c-0.93,2.17-1.83,4.431-2.69,6.761c-2.87,7.79-4.83,15.239-5.83,21.55l-23.73,19.51 l-26.95,22.16l-0.01,0.01c-13.49,9.37-28.6,19.5-44.51,30.08l3.2,3.89c-10.01-1.67-10.74,2.771-10.74,2.771v-1.64 c-0.82,0.539-1.65,1.09-2.47,1.64h-141.2v-16.9h143.67v1.07l70.08-57.62l40.899-33.63L422.064,465.616z"/><path fill="#3f5efb" d="M310.804,570.707v1.64h-2.47C309.154,571.796,309.984,571.246,310.804,570.707z"/><path fill="#3f5efb" d="M171.53,553.475l-2.291-1.938c6.776-8.016,19.09-12.682,36.604-13.867l0.202,2.992 C189.374,541.792,177.761,546.102,171.53,553.475z"/><path fill="#3f5efb" d="M168.328,550.474l-2.388-1.816c6.381-8.387,15.704-14.169,27.708-17.187l0.731,2.91 C183.052,537.228,174.287,542.642,168.328,550.474z"/><path fill="#3f5efb" d="M310.188,554.915c-0.418-0.188-42.331-18.879-81.757-22.385l0.266-2.988 c39.94,3.552,82.299,22.446,82.723,22.637L310.188,554.915z"/><path fill="#3f5efb" d="M315.939,551.944l-2.387-1.816c2.691-3.537,66.062-86.362,94.556-86.362c0.091,0,0.18,0.001,0.27,0.002 l-0.056,3C381.437,466.302,316.592,551.087,315.939,551.944z"/><path fill="#3f5efb" d="M309.453,551.679c-8.33-17.546-8.18-34.819,0.448-51.34c18.307-35.057,70.29-56.061,73.584-56.608 l0.492,2.959l-0.246-1.479l0.308,1.468c-0.518,0.131-55.318,20.585-72.614,57.336c-7.03,14.937-6.782,30.541,0.737,46.378 L309.453,551.679z"/><path fill="#ECF0F1" d="M157.294,550.236c-0.416,0-0.804-0.261-0.946-0.676c-0.212-0.62-0.555-1.362-0.988-2.301 c-0.804-1.741-1.904-4.125-3.085-7.7c-0.173-0.524,0.112-1.09,0.636-1.263c0.524-0.177,1.091,0.111,1.264,0.636 c1.145,3.467,2.218,5.791,3.001,7.488c0.458,0.991,0.819,1.774,1.065,2.491c0.179,0.522-0.1,1.092-0.623,1.271 C157.511,550.218,157.401,550.236,157.294,550.236z"/><path fill="#c30041" d="M173.174,572.346h135.16c-16.07,10.68-32.74,21.729-49.21,32.86 C241.454,593.896,205.074,581.696,173.174,572.346z"/><path fill="#c30041" d="M507.004,643.476c-19.54,28.96-50.13,55.11-84.04,78c-54.84,37.02-118.38,65.53-158.01,83.69 c-8.02-2.19-15.53-5.051-22.55-8.471c219.19-121.09,256.21-216.2,266.65-247.13C526.854,574.466,530.794,608.216,507.004,643.476z"/><path fill="#c30041" d="M484.064,908.207c-13.59,11-28.49,19.109-43.96,24.96c-20.34-38.79-44.18-147.29-52.92-189.29 c12.11-7.07,24.14-14.54,35.78-22.4C430.444,761.786,459.104,840.966,484.064,908.207z"/><path fill="#000066" d="M237.019,325.774c-0.55,0-1.061-0.086-1.495-0.271c-0.519-0.221-2.149-1.151-1.342-3.843 c1.066-3.558-1.305-11.529-2.309-14.301c-0.188-0.52,0.08-1.093,0.6-1.281c0.52-0.184,1.093,0.082,1.28,0.6 c0.157,0.433,3.817,10.644,2.344,15.557c-0.355,1.188,0.056,1.363,0.21,1.429c1.191,0.509,4.355-0.664,5.226-2.207 c0.271-0.481,0.881-0.651,1.362-0.38c0.481,0.271,0.65,0.882,0.379,1.362C242.208,324.329,239.28,325.774,237.019,325.774z"/><path fill="#000066" d="M302.144,288.048c-0.438,0-0.841-0.29-0.963-0.733c-0.455-1.646-0.254-3.093,0.598-4.299 c1.877-2.657,6.297-3.001,6.484-3.014c0.555-0.054,1.028,0.374,1.067,0.925c0.04,0.55-0.374,1.029-0.924,1.069 c-1.017,0.075-3.896,0.613-4.997,2.177c-0.494,0.702-0.593,1.555-0.301,2.608c0.147,0.532-0.165,1.083-0.698,1.23 C302.321,288.037,302.231,288.048,302.144,288.048z"/><path fill="#000066" d="M253.174,333.96c-2.214,0-4.531-0.101-6.955-0.315c-0.55-0.049-0.957-0.534-0.908-1.084 s0.539-0.955,1.084-0.908c35.667,3.157,47.197-19.023,47.31-19.247c0.247-0.494,0.847-0.691,1.342-0.447 c0.494,0.247,0.693,0.848,0.446,1.342C295.383,313.522,284.768,333.96,253.174,333.96z"/><path fill="#000066" d="M149.45,556.358c-1.335,0-2.772-0.19-4.308-0.572c-11.788-2.935-26.097-16.449-30.54-26.117 c-1.988-4.327-2.148-7.617-0.476-9.779c2.733-3.531,9.229-2.415,9.503-2.367c0.543,0.098,0.905,0.616,0.809,1.159 c-0.097,0.543-0.619,0.908-1.159,0.81c-1.547-0.271-5.921-0.514-7.572,1.625c-1.468,1.901-0.423,5.246,0.713,7.717 c4.258,9.265,17.943,22.209,29.206,25.012c3.8,0.948,6.838,0.578,9.026-1.093c0.438-0.336,1.066-0.251,1.402,0.188 c0.335,0.438,0.251,1.066-0.188,1.401C154.106,555.684,151.958,556.358,149.45,556.358z"/><path fill="#000066" d="M160.375,549.155c-4.177,0.001-10.301-3.346-23.024-11.477c-19.956-12.753-12.933-26.352-12.859-26.487 c0.262-0.485,0.869-0.669,1.355-0.405c0.485,0.262,0.667,0.866,0.407,1.352l0,0c-0.26,0.49-6.152,12.145,12.174,23.855 c19.369,12.378,22.272,12.773,26.279,9.087c0.407-0.373,1.039-0.348,1.413,0.06c0.374,0.406,0.348,1.039-0.059,1.413 C164.252,548.215,162.586,549.155,160.375,549.155z"/><path fill="#000066" d="M171.382,537.898c-10.003,0.002-29.263-16.853-37.654-25.725c-3.817-4.037-5.399-7.752-4.701-11.043 c0.879-4.141,5.031-5.914,5.207-5.987c0.509-0.214,1.095,0.029,1.308,0.538c0.212,0.509-0.028,1.094-0.536,1.307 c-0.043,0.019-3.376,1.467-4.025,4.572c-0.546,2.606,0.867,5.715,4.2,9.238c11.233,11.877,30.58,27.132,37.693,24.895 c0.526-0.164,1.088,0.126,1.254,0.653s-0.126,1.089-0.653,1.255C172.836,537.802,172.134,537.898,171.382,537.898z"/><path fill="#000066" d="M151.033,497.066c-0.164,0-0.331-0.04-0.484-0.125c-0.483-0.269-0.657-0.877-0.39-1.359 c0.992-1.79,0.458-8.044-0.112-11.565c-0.089-0.546,0.281-1.059,0.827-1.147c0.546-0.092,1.059,0.282,1.146,0.827 c0.163,1.003,1.538,9.878-0.112,12.854C151.726,496.88,151.385,497.066,151.033,497.066z"/><path fill="#000066" d="M219.845,531.516c-0.36,0-0.709-0.195-0.887-0.537c-16.318-31.283-62.615-47.627-63.081-47.788 c-0.522-0.182-0.799-0.751-0.618-1.272c0.181-0.523,0.75-0.8,1.272-0.618c0.474,0.164,47.518,16.774,64.2,48.753 c0.255,0.49,0.065,1.094-0.424,1.35C220.159,531.48,220.001,531.516,219.845,531.516z"/><path fill="#000066" d="M180.573,490.96c-0.173,0-0.347-0.045-0.507-0.139c-0.476-0.28-0.634-0.894-0.354-1.369 c0.763-1.294,2.701-2.09,5.155-3.097c3.676-1.509,8.251-3.387,8.466-7.217c0.145-2.577-0.855-4.776-2.815-6.194 c-2.506-1.811-6.087-2.075-9.579-0.701c-4.521,1.777-11.567,6.735-15.778,9.698c-4.193,2.951-4.443,3.124-5.146,2.84 c-0.511-0.209-0.756-0.793-0.547-1.305c0.136-0.333,0.432-0.553,0.763-0.607c0.49-0.249,2.161-1.425,3.779-2.563 c4.561-3.209,11.452-8.059,16.197-9.924c4.129-1.623,8.422-1.271,11.482,0.942c2.531,1.83,3.824,4.646,3.641,7.926 c-0.285,5.09-5.729,7.324-9.704,8.955c-1.854,0.761-3.77,1.548-4.192,2.263C181.249,490.785,180.916,490.96,180.573,490.96z"/><path fill="#000066" d="M424.403,461.496c-0.143,0-0.288-0.03-0.425-0.095c-0.449-0.211-0.668-0.713-0.538-1.175 c-0.5-0.917-4.496-2.967-7.725-4.623c-5.053-2.592-11.341-5.817-15.702-9.641c-5.81-5.093-8.806-12.199-6.679-15.84 c0.729-1.249,2.695-3.085,7.669-1.338c10.072,3.533,32.36,15.049,33.304,15.538c0.49,0.254,0.682,0.856,0.428,1.348 c-0.254,0.489-0.857,0.683-1.348,0.428c-0.229-0.118-23.107-11.939-33.046-15.427c-1.554-0.544-4.305-1.21-5.28,0.459 c-1.428,2.445,0.951,8.664,6.271,13.328c4.175,3.66,10.341,6.823,15.296,9.365c6.243,3.202,9.682,4.966,8.68,7.098 C425.139,461.284,424.778,461.496,424.403,461.496z"/><path fill="#000066" d="M414.727,488.861c-0.084,0-0.169-0.011-0.254-0.032c-0.534-0.141-0.854-0.687-0.714-1.221 c11.157-42.594,27.757-48.208,28.458-48.427c0.528-0.162,1.088,0.131,1.252,0.658c0.164,0.525-0.128,1.084-0.653,1.25 c-0.191,0.063-16.31,5.746-27.123,47.024C415.575,488.564,415.17,488.861,414.727,488.861z"/><path fill="#000066" d="M426.855,519.046c-0.037,0-0.073-0.002-0.11-0.006c-0.549-0.061-0.945-0.554-0.885-1.103 c1.454-13.291,12.068-40.207,23.176-58.776c11.715-19.584,20.475-16.438,20.842-16.297c0.515,0.201,0.769,0.781,0.568,1.295 c-0.2,0.511-0.771,0.763-1.283,0.573c-0.144-0.051-7.734-2.39-18.41,15.456c-10.987,18.366-21.477,44.911-22.905,57.966 C427.792,518.667,427.358,519.046,426.855,519.046z"/><path fill="#000066" d="M445.984,519.046c-0.105,0-0.213-0.017-0.318-0.052c-0.523-0.176-0.806-0.742-0.631-1.266 c0.247-0.735,6.104-18.12,12.657-28.31c4.077-6.339,13.637-15.371,17.558-18.961c3.262-2.985,6.48-5.759,9.063-7.809 c4.422-3.511,4.905-3.307,5.465-3.079c0.511,0.211,0.754,0.795,0.544,1.306c-0.159,0.386-0.532,0.619-0.925,0.619 c-0.001,0-0.003,0-0.005,0c-2.483,0.994-23.631,19.076-30.017,29.006c-6.419,9.98-12.383,27.685-12.443,27.862 C446.792,518.783,446.402,519.046,445.984,519.046z"/><path fill="#000066" d="M459.264,517.806c-0.154,0-0.311-0.035-0.456-0.11c-0.491-0.252-0.686-0.854-0.433-1.347 c10.118-19.718,34.417-34.34,36.255-35.038c0.515-0.199,1.091,0.063,1.288,0.578c0.197,0.516-0.063,1.094-0.578,1.291 c-1.785,0.686-25.372,14.956-35.186,34.083C459.977,517.608,459.626,517.806,459.264,517.806z"/><path fill="#000066" d="M153.225,685.656c-0.3,0-0.597-0.135-0.793-0.391c-0.336-0.438-0.254-1.066,0.184-1.402 c1.216-0.935,122.064-93.667,161.651-115.288c0.485-0.265,1.093-0.086,1.357,0.398c0.265,0.485,0.086,1.093-0.398,1.357 c-39.453,21.547-160.178,114.185-161.393,115.118C153.651,685.588,153.438,685.656,153.225,685.656z"/><path fill="#FFF" d="M222.124,488.861c-0.032,0-0.065-0.002-0.098-0.005c-0.55-0.053-0.952-0.542-0.899-1.092 c1.227-12.677-27.38-68.768-27.669-69.333c-0.252-0.491-0.057-1.094,0.435-1.346c0.491-0.251,1.094-0.058,1.346,0.436 c1.191,2.328,29.162,57.182,27.88,70.437C223.068,488.474,222.633,488.861,222.124,488.861z"/><path fill="#FFF" d="M370.49,446.21c-0.381,0-0.745-0.219-0.913-0.589c-9.4-20.846-0.442-56.392-0.057-57.895 c0.138-0.534,0.683-0.854,1.217-0.72c0.535,0.138,0.857,0.683,0.72,1.218c-0.093,0.361-9.168,36.371-0.057,56.574 c0.227,0.504,0.003,1.096-0.5,1.322C370.767,446.182,370.627,446.21,370.49,446.21z"/><path fill="#FFF" d="M205.945,288.048c-0.023,0-0.047-0.001-0.071-0.002c-0.551-0.039-0.966-0.517-0.928-1.067 c2.082-29.816,16.211-54.265,16.354-54.508c0.279-0.479,0.892-0.637,1.368-0.358c0.477,0.279,0.637,0.892,0.358,1.368 c-0.14,0.239-14.037,24.303-16.085,53.637C206.904,287.645,206.465,288.048,205.945,288.048z"/><path fill="#FFF" d="M214.052,288.048c-0.497,0-0.928-0.37-0.991-0.876c-1.792-14.392,7.783-35.709,8.192-36.609 c0.228-0.504,0.82-0.727,1.324-0.498c0.503,0.229,0.726,0.821,0.498,1.324c-0.098,0.216-9.75,21.707-8.028,35.535 c0.068,0.549-0.321,1.048-0.869,1.116C214.135,288.045,214.093,288.048,214.052,288.048z"/><path fill="#FFF" d="M270.454,215.976c-0.045,0-0.091-0.003-0.137-0.009c-0.547-0.075-0.93-0.579-0.855-1.127 c2.48-18.132-10.318-25.927-10.448-26.004c-0.475-0.28-0.633-0.894-0.352-1.369c0.281-0.475,0.895-0.633,1.37-0.352 c0.141,0.083,14.069,8.563,11.411,27.996C271.375,215.613,270.946,215.976,270.454,215.976z"/><path fill="#FFF" d="M282.855,215.976c-0.052,0-0.104-0.004-0.157-0.013c-0.546-0.086-0.918-0.598-0.832-1.144 c2.849-18.039-10.962-25.646-11.552-25.961c-0.486-0.261-0.671-0.865-0.412-1.353c0.26-0.487,0.864-0.674,1.352-0.413 c0.156,0.083,15.664,8.56,12.588,28.039C283.764,215.625,283.339,215.976,282.855,215.976z"/><path fill="#FFF" d="M458.535,909.207c-0.345,0-0.681-0.179-0.867-0.499c-14.236-24.625-43.646-163.62-44.891-169.525 c-0.114-0.54,0.232-1.07,0.772-1.185c0.541-0.112,1.07,0.231,1.185,0.772c0.304,1.442,30.588,144.587,44.666,168.936 c0.276,0.479,0.113,1.09-0.365,1.366C458.877,909.164,458.704,909.207,458.535,909.207z"/><path fill="#FFF" d="M462.014,962.976c-0.317,0-0.621-0.151-0.811-0.414c-0.229-0.317-0.252-0.738-0.06-1.078l20.483-36.229 l-30.459,14.622c-0.498,0.24-1.096,0.028-1.335-0.469c-0.239-0.498-0.029-1.095,0.469-1.334l33.33-16 c0.395-0.189,0.865-0.101,1.164,0.219c0.298,0.318,0.355,0.795,0.14,1.175l-20.979,37.105l23.204-4.579 c0.545-0.105,1.068,0.247,1.175,0.788c0.107,0.542-0.246,1.067-0.787,1.175l-25.34,5 C462.143,962.97,462.078,962.976,462.014,962.976z"/><path fill="#FFF" d="M422.569,1095.096c-18.692,0-41.786-2.566-70.29-9.145c-0.538-0.125-0.874-0.662-0.75-1.199 c0.124-0.539,0.661-0.877,1.199-0.75c74.697,17.24,111.74,6.801,129.662-4.992c16.46-10.83,19.039-24.08,19.063-24.213 c0.099-0.543,0.621-0.912,1.163-0.805c0.543,0.1,0.903,0.619,0.805,1.162c-0.104,0.576-2.764,14.23-19.932,25.527 C472.142,1088.148,453.313,1095.096,422.569,1095.096z"/><path fill="#FFF" d="M124.185,739.976c-0.102,0-0.206-0.016-0.309-0.049c-0.525-0.171-0.813-0.734-0.643-1.26l5.683-17.5 c0.159-0.487,0.66-0.772,1.159-0.67l19.619,4.172l-5.883-24.702c-0.128-0.537,0.204-1.076,0.741-1.204 c0.537-0.133,1.077,0.202,1.205,0.741l6.249,26.24c0.079,0.333-0.018,0.685-0.258,0.93c-0.239,0.246-0.587,0.354-0.923,0.28 l-20.285-4.313l-5.405,16.644C124.999,739.708,124.606,739.976,124.185,739.976z"/><path fill="#FFF" d="M98.705,920.976c-0.06,0-0.12-0.005-0.181-0.017c-37.527-6.871-61.147-21.353-70.204-43.043 c-14-33.528,12.439-72.92,12.708-73.313c0.311-0.457,0.933-0.572,1.389-0.263c0.457,0.312,0.574,0.934,0.263,1.39 c-0.262,0.385-26.099,38.902-12.511,71.424c8.782,21.021,31.901,35.098,68.715,41.839c0.543,0.1,0.903,0.62,0.803,1.163 C99.6,920.638,99.179,920.976,98.705,920.976z"/><path fill="#000066" d="M256.098,317.835c-13.391,0-24.285-10.895-24.285-24.285s10.894-24.284,24.285-24.284 s24.285,10.894,24.285,24.284S269.488,317.835,256.098,317.835z M256.098,271.266c-12.288,0-22.285,9.997-22.285,22.284 c0,12.288,9.997,22.285,22.285,22.285s22.285-9.997,22.285-22.285C278.383,281.263,268.386,271.266,256.098,271.266z"/><path fill="#000066" d="M214.053,319.019c-9.09,0-16.485-7.396-16.485-16.486c0-9.09,7.396-16.484,16.485-16.484 s16.485,7.395,16.485,16.484C230.538,311.624,223.143,319.019,214.053,319.019z M214.053,288.048 c-7.987,0-14.485,6.498-14.485,14.484c0,7.987,6.498,14.486,14.485,14.486s14.485-6.499,14.485-14.486 C228.538,294.546,222.04,288.048,214.053,288.048z"/><path fill="#000066" d="M1072.644,1051.405c0,5.202-4.217,9.419-9.42,9.419H784.673c-5.202,0-9.42-4.217-9.42-9.419l0,0 c0-5.202,4.218-9.42,9.42-9.42h152.059h126.492C1068.427,1041.985,1072.644,1046.203,1072.644,1051.405L1072.644,1051.405z"/><path fill="#000066" d="M936.735,1043.799c-0.349,0-0.702-0.1-1.014-0.31c-0.834-0.561-1.055-1.692-0.494-2.525 c0.352-0.523,35.601-53.503,67.112-151.053c29.082-90.027,60.836-237.508,46.962-428.853 c-10.522-145.11-57.146-253.771-138.579-322.962C848.42,85.158,786.346,73.542,768.806,71.244c-0.997-0.13-1.698-1.045-1.567-2.041 c0.13-0.995,1.039-1.704,2.041-1.568c17.791,2.332,80.739,14.106,143.801,67.688c36.483,31,66.5,70.704,89.219,118.008 c27.814,57.917,44.851,127.718,50.634,207.464c13.922,192.013-17.973,340.034-47.182,430.396 c-31.672,97.98-67.15,151.278-67.504,151.804C937.896,1043.519,937.321,1043.799,936.735,1043.799z"/><path fill="#000066" d="M789.003,94.695l-9.771,16.158l-47.8-28.895l9.771-16.158c3.221-5.331,10.136-7.042,15.467-3.82 l12.355,7.459h0.017l16.158,9.79C790.513,82.45,792.225,89.382,789.003,94.695z"/><path fill="#ad50a7" d="M800.157,136.656l-30.532,181.996c-3.221,5.331-10.153,7.042-15.467,3.82L555.694,202.471 c-5.331-3.221-7.042-10.153-3.821-15.467l144.33-113.197c3.222-5.333,10.154-7.025,15.467-3.805l19.762,11.956l47.8,28.895 l17.105,10.337C801.667,124.409,803.379,131.324,800.157,136.656z"/></svg>