<?xml version="1.0" encoding="utf-8"?>
<!-- Generator: Adobe Illustrator 24.3.0, SVG Export Plug-In . SVG Version: 6.00 Build 0)  -->
<svg version="1.1" id="Ñëîé_5" xmlns="http://www.w3.org/2000/svg" xmlns:xlink="http://www.w3.org/1999/xlink" x="0px" y="0px"
	 viewBox="0 0 500 500" style="enable-background:new 0 0 500 500;" xml:space="preserve">
<style type="text/css">
	.st0{fill:url(#SVGID_1_);}
	.st1{fill:url(#SVGID_2_);}
	.st2{fill:url(#SVGID_3_);}
	.st3{fill:url(#SVGID_4_);}
	.st4{fill:url(#SVGID_5_);}
	.st5{fill:url(#SVGID_6_);}
	.st6{fill:#EEFDFF;}
	.st7{fill:url(#SVGID_7_);}
	.st8{fill:url(#SVGID_8_);}
	.st9{fill:url(#SVGID_9_);}
	.st10{fill:url(#SVGID_10_);}
	.st11{fill:#FFFFFF;}
	.st12{fill:url(#SVGID_11_);}
	.st13{fill:url(#SVGID_12_);}
	.st14{fill:url(#SVGID_13_);}
	.st15{fill:url(#SVGID_14_);}
	.st16{fill:url(#SVGID_15_);}
	.st17{fill:url(#SVGID_16_);}
	.st18{display:none;fill:url(#SVGID_17_);}
	.st19{display:none;}
	.st20{display:inline;fill:url(#SVGID_18_);}
	.st21{display:inline;fill:url(#SVGID_19_);}
	.st22{display:inline;fill:url(#SVGID_20_);}
	.st23{display:inline;fill:url(#SVGID_21_);}
	.st24{display:inline;fill:url(#SVGID_22_);}
	.st25{display:inline;fill:url(#SVGID_23_);}
	.st26{display:none;fill:#FFFFFF;}
</style>
<g>
	
		<linearGradient id="SVGID_1_" gradientUnits="userSpaceOnUse" x1="26.5407" y1="281.9122" x2="157.6557" y2="416.4239" gradientTransform="matrix(0.1117 0.9937 0.9937 -0.1117 -85.8095 313.6603)">
		<stop  offset="3.970000e-02" style="stop-color:#06BED8"/>
		<stop  offset="1" style="stop-color:#DEFA8E"/>
	</linearGradient>
	<path class="st0" d="M175.5,284.4c38.3,10.5,47.3,7.5,54.1,17.8c0.8,1.2,4.8,7.2,4,14.9c-0.6,6.2-4.1,10.9-6.2,13
		c-13.1,12.7-49.2-2.8-69.8-19.8c-4.5-3.7-16.6-13.6-14.1-20.7c1-2.9,4.1-4.3,6.3-5.3C159.6,279.9,169.8,282.9,175.5,284.4z"/>
	
		<linearGradient id="SVGID_2_" gradientUnits="userSpaceOnUse" x1="272.9432" y1="443.5972" x2="297.3684" y2="447.1591" gradientTransform="matrix(1 0 0 -1 0 500)">
		<stop  offset="3.970000e-02" style="stop-color:#06CFF1"/>
		<stop  offset="1" style="stop-color:#DEFA8E"/>
	</linearGradient>
	<rect x="285.5" y="27.3" class="st1" width="8.1" height="53.4"/>
	
		<linearGradient id="SVGID_3_" gradientUnits="userSpaceOnUse" x1="266.7171" y1="381.5703" x2="310.0608" y2="430.5067" gradientTransform="matrix(1 0 0 -1 0 500)">
		<stop  offset="3.970000e-02" style="stop-color:#06CFF1"/>
		<stop  offset="1" style="stop-color:#DEFA8E"/>
	</linearGradient>
	<path class="st2" d="M317.6,110.2h-56.2c-4.1,0-7.5-3.4-7.5-7.5V82.6c0-4.1,3.4-7.5,7.5-7.5h56.2c4.1,0,7.5,3.4,7.5,7.5v20.1
		C325.2,106.9,321.8,110.2,317.6,110.2z"/>
	
		<linearGradient id="SVGID_4_" gradientUnits="userSpaceOnUse" x1="203.9316" y1="212.0426" x2="375.6903" y2="383.8015" gradientTransform="matrix(1 0 0 -1 0 500)">
		<stop  offset="3.970000e-02" style="stop-color:#06CFF1"/>
		<stop  offset="1" style="stop-color:#DEFA8E"/>
	</linearGradient>
	<path class="st3" d="M417,227c0,32.5-26.3,58.8-58.8,58.8H220.9c-32.3,0-58.8-26.4-58.8-58.8v-30.5c0-57.5,47-104.6,104.6-104.6
		h45.8C370,91.9,417,139,417,196.5L417,227L417,227z"/>
	
		<linearGradient id="SVGID_5_" gradientUnits="userSpaceOnUse" x1="289.0932" y1="276.2786" x2="290.6202" y2="344.9862" gradientTransform="matrix(1 0 0 -1 0 500)">
		<stop  offset="0" style="stop-color:#030D14"/>
		<stop  offset="1" style="stop-color:#0B2F45"/>
	</linearGradient>
	<path class="st4" d="M376.9,221.5L376.9,221.5c-3.3,1.6-7.1,2.5-10.9,2.5h-153c-3.8,0-7.5-0.9-10.9-2.5l0,0
		c-8.2-4.1-12.8-12.2-11.7-20.6l0.1-0.6c3.9-28.4,29.7-50.3,61.2-51.9c13.3-0.7,27.4-1,42-1c11.4,0.1,22.5,0.4,33.2,0.9
		c31.7,1.6,57.6,23.4,61.5,51.9c0,0.2,0,0.4,0.1,0.6C389.7,209.2,385.1,217.4,376.9,221.5z"/>
	<g>
		
			<radialGradient id="SVGID_6_" cx="243.03" cy="274.92" r="17.1797" gradientTransform="matrix(1.6617 0 0 -1.6623 -154.622 645.8502)" gradientUnits="userSpaceOnUse">
			<stop  offset="0.1296" style="stop-color:#3280FC"/>
			<stop  offset="1" style="stop-color:#000000"/>
		</radialGradient>
		<ellipse class="st5" cx="249.2" cy="188.9" rx="28.8" ry="28.9"/>
		<g>
			<ellipse class="st6" cx="249.2" cy="188.9" rx="20.7" ry="20.7"/>
		</g>
		<g>
			
				<linearGradient id="SVGID_7_" gradientUnits="userSpaceOnUse" x1="231.8377" y1="311.1464" x2="266.6003" y2="311.1464" gradientTransform="matrix(1 0 0 -1 0 500)">
				<stop  offset="0" style="stop-color:#030D14"/>
				<stop  offset="1" style="stop-color:#0B2F45"/>
			</linearGradient>
			<ellipse class="st7" cx="249.2" cy="188.9" rx="17.4" ry="17.4"/>
		</g>
		<g>
			<path class="st6" d="M260.4,184.3c0,3.6-2.9,6.4-6.4,6.4c-3.6,0-6.4-2.9-6.4-6.4s2.9-6.4,6.4-6.4
				C257.5,177.9,260.4,180.8,260.4,184.3z"/>
		</g>
		<g>
			<circle class="st6" cx="246.7" cy="202.2" r="2.6"/>
		</g>
		<g>
			<path class="st6" d="M240.3,198.3c0,0.7-0.6,1.3-1.3,1.3c-0.7,0-1.3-0.6-1.3-1.3c0-0.7,0.6-1.3,1.3-1.3
				C239.7,197,240.3,197.6,240.3,198.3z"/>
		</g>
	</g>
	<g>
		
			<radialGradient id="SVGID_8_" cx="289.92" cy="274.92" r="17.1808" gradientTransform="matrix(1.6617 0 0 -1.6623 -154.622 645.8502)" gradientUnits="userSpaceOnUse">
			<stop  offset="0.1296" style="stop-color:#3280FC"/>
			<stop  offset="1" style="stop-color:#000000"/>
		</radialGradient>
		<ellipse class="st8" cx="327.1" cy="188.9" rx="28.8" ry="28.9"/>
		<g>
			<ellipse class="st6" cx="327.1" cy="188.9" rx="20.7" ry="20.7"/>
		</g>
		<g>
			
				<linearGradient id="SVGID_9_" gradientUnits="userSpaceOnUse" x1="309.7545" y1="311.1464" x2="344.517" y2="311.1464" gradientTransform="matrix(1 0 0 -1 0 500)">
				<stop  offset="0" style="stop-color:#030D14"/>
				<stop  offset="1" style="stop-color:#0B2F45"/>
			</linearGradient>
			<ellipse class="st9" cx="327.1" cy="188.9" rx="17.4" ry="17.4"/>
		</g>
		<g>
			<path class="st6" d="M338.3,184.3c0,3.6-2.9,6.4-6.4,6.4c-3.6,0-6.4-2.9-6.4-6.4s2.9-6.4,6.4-6.4
				C335.4,177.9,338.3,180.8,338.3,184.3z"/>
		</g>
		<g>
			<circle class="st6" cx="324.6" cy="202.2" r="2.6"/>
		</g>
		<g>
			<path class="st6" d="M318.2,198.3c0,0.7-0.6,1.3-1.3,1.3c-0.7,0-1.3-0.6-1.3-1.3c0-0.7,0.6-1.3,1.3-1.3
				C317.6,197,318.2,197.6,318.2,198.3z"/>
		</g>
	</g>
	
		<linearGradient id="SVGID_10_" gradientUnits="userSpaceOnUse" x1="267.5813" y1="473.0937" x2="299.9003" y2="477.8069" gradientTransform="matrix(1 0 0 -1 0 500)">
		<stop  offset="3.970000e-02" style="stop-color:#06CFF1"/>
		<stop  offset="1" style="stop-color:#DEFA8E"/>
	</linearGradient>
	<path class="st10" d="M300,23.7c0,5.8-4.7,10.4-10.4,10.4c-5.8,0-10.4-4.7-10.4-10.4s4.7-10.4,10.4-10.4
		C295.3,13.3,300,17.9,300,23.7z"/>
	<path class="st11" d="M296.8,19.6c0,1.8-1.4,3.2-3.2,3.2c-1.8,0-3.2-1.4-3.2-3.2c0-1.8,1.4-3.2,3.2-3.2
		C295.4,16.4,296.8,17.9,296.8,19.6z"/>
	<path class="st11" d="M379.3,125.4c0.1,4.9-3.8,10.7-8.4,11.2c-4.3,0.5-7.7-3.9-11.2-8.4c-3.5-4.4-11-15.8-8-19
		C355.7,104.9,379,113.9,379.3,125.4z"/>
	<circle class="st11" cx="340.4" cy="103.2" r="3.6"/>
	<path class="st11" d="M378.8,192.9c-1.2,0.8-9.3-15.7-31-30c-7.6-5-15.2-8.6-14.8-9.7c0.4-1.1,9,0.9,15.8,4.1
		C370.5,167.4,380.2,191.9,378.8,192.9z"/>
	<path class="st11" d="M323.1,85.5c-0.3,0-0.4-1.5-1.7-3.8c0,0-0.6-1.1-1.3-2c-2.2-3-9.6-2.9-10.2-2.9c-11.5,0.1-19-0.6-19-0.6
		c0,0.1,5.4,0,9.4-0.1c11.2-0.2,17.8-0.8,20.7,2.2c1.2,1.2,1.8,2.9,1.8,2.9C323.7,83.2,323.4,85.5,323.1,85.5z"/>
	<path class="st6" d="M320.7,236.3c-0.3,2.8-2.6,4.9-5.4,5.2l-38.2,3.7c-2.8,0.3-5.4-1.4-6.2-4c-0.4-1.2-0.6-2.4-0.8-3.7
		c0-0.3,0-0.7,0.2-1c0.2-0.3,0.5-0.4,0.9-0.5l48.2-4.7c0.3,0,0.7,0.1,0.9,0.3c0.3,0.2,0.4,0.5,0.4,0.9
		C320.9,233.9,320.8,235.1,320.7,236.3z"/>
	
		<linearGradient id="SVGID_11_" gradientUnits="userSpaceOnUse" x1="288.4954" y1="249.5892" x2="338.2227" y2="299.3165" gradientTransform="matrix(1 0 0 -1 0 500)">
		<stop  offset="7.140000e-02" style="stop-color:#0DA9AB"/>
		<stop  offset="1" style="stop-color:#DEFA8E"/>
	</linearGradient>
	<path class="st12" d="M320.7,236.4c-1.2,11.9-10.6,21.6-22.9,22.8c-12.1,1.2-23.1-6.3-26.7-17.5c1,2.4,3.5,3.8,6.1,3.6l38.2-3.7
		C318.1,241.2,320.4,239.1,320.7,236.4z"/>
	
		<linearGradient id="SVGID_12_" gradientUnits="userSpaceOnUse" x1="241.5473" y1="98.6466" x2="373.312" y2="252.5139" gradientTransform="matrix(1 0 0 -1 0 500)">
		<stop  offset="3.970000e-02" style="stop-color:#06CFF1"/>
		<stop  offset="4.080000e-02" style="stop-color:#06CFF1"/>
		<stop  offset="0.1607" style="stop-color:#37D9DB"/>
		<stop  offset="0.2745" style="stop-color:#5DE0CA"/>
		<stop  offset="0.3793" style="stop-color:#78E6BD"/>
		<stop  offset="0.4719" style="stop-color:#88E9B6"/>
		<stop  offset="0.5423" style="stop-color:#8EEAB3"/>
		<stop  offset="0.8004" style="stop-color:#B9F39F"/>
		<stop  offset="1" style="stop-color:#DEFA8E"/>
	</linearGradient>
	<path class="st13" d="M380.9,322.2c0,0.3,0,0.7,0,1c-0.1,3.2-0.9,5.6-1.2,6.7C369.1,362,362.8,379,354,392.7
		c-1.5,2.4-3.1,4.6-4.9,6.9c-2.3,3-4.7,5.9-7.5,8.9c-6.1,6.6-15.3,9.7-18.3,10.7c-10.9,3.8-20.5,3.1-26.9,3.2h-1.1
		c-6.4-0.1-16,0.6-26.9-3.2c-3-1-12.2-4-18.3-10.7c-16.8-18.3-23.2-33.5-38-78.5c-0.3-1-1-3.3-1.2-6.3c0-0.9-0.1-1.7,0-2.6
		c0.3-5.4,2.5-10.7,6.4-15.5c6.6-8.3,16.9-12.8,27.5-12.8l51.1-0.2l50.2-0.2c10.8,0,21.3,4.5,28.2,12.9c3.3,4.1,5.5,8.4,6.2,13
		c0.1,0.6,0.2,1.3,0.3,1.9C380.8,320.8,380.9,321.5,380.9,322.2z"/>
	
		<linearGradient id="SVGID_13_" gradientUnits="userSpaceOnUse" x1="234.5461" y1="175.3801" x2="313.7776" y2="267.902" gradientTransform="matrix(1 0 0 -1 0 500)">
		<stop  offset="3.970000e-02" style="stop-color:#06CFF1"/>
		<stop  offset="1" style="stop-color:#DEFA8E"/>
	</linearGradient>
	<path class="st14" d="M295.9,292.4l-51.1,0.2c-10.6,0-20.9,4.6-27.5,12.8c-3.9,4.8-6.1,10.1-6.4,15.5c0.3-5.5,2.5-11,6.6-15.9
		c6.9-8.4,17.4-12.9,28.2-12.9L295.9,292.4z"/>
	
		<linearGradient id="SVGID_14_" gradientUnits="userSpaceOnUse" x1="60.1295" y1="135.04" x2="168.5295" y2="191.5302" gradientTransform="matrix(-0.9886 -0.1505 0.1505 -0.9886 443.9047 520.9236)">
		<stop  offset="3.970000e-02" style="stop-color:#06CFF1"/>
		<stop  offset="7.340000e-02" style="stop-color:#0FD1ED"/>
		<stop  offset="0.4151" style="stop-color:#67E2C5"/>
		<stop  offset="0.6937" style="stop-color:#A7EFA7"/>
		<stop  offset="0.8955" style="stop-color:#CFF795"/>
		<stop  offset="1" style="stop-color:#DEFA8E"/>
	</linearGradient>
	<path class="st15" d="M346.7,367.8c-0.7-39.7-6.1-47.5,1.8-57c0.9-1.1,5.6-6.6,13.2-8c6.1-1.1,11.6,0.8,14.2,2.3
		c15.9,9,11.1,48,0.7,72.6c-2.3,5.4-8.4,19.8-15.8,19.4c-3.1-0.1-5.3-2.7-6.9-4.6C346.9,384.4,346.8,373.8,346.7,367.8z"/>
	
		<linearGradient id="SVGID_15_" gradientUnits="userSpaceOnUse" x1="317.8409" y1="128.6285" x2="387.7682" y2="165.0695" gradientTransform="matrix(1 0 0 -1 0 500)">
		<stop  offset="3.970000e-02" style="stop-color:#06BED8"/>
		<stop  offset="1" style="stop-color:#DEFA8E"/>
	</linearGradient>
	<path class="st16" d="M354,392.7c-1.5,2.4-3.1,4.6-4.9,6.9c-0.5-0.6-1-1.1-1.5-1.6c-7-8.2-7.1-18.8-7.2-24.8
		c-0.7-39.7-6.1-47.5,1.8-56.9c0.6-0.7,2.7-3.2,6.1-5.3c-7.8,9.4-2.5,17.3-1.7,56.9c0.1,6,0.2,16.6,7.2,24.8
		C353.9,392.6,354,392.7,354,392.7z"/>
	<path class="st11" d="M376.4,334.8c-0.2-4.3-1-7.4-2.6-13.7c-2.1-8.2-4.7-12.2-3-13.8c1.1-1,3.3-0.3,3.8-0.2
		c7.5,2.4,9.8,16.5,9.5,25.3c-0.2,5.4-1.5,11.4-3.5,11.7c-0.3,0-1.1,0-1.6-0.5C376.7,341.6,376.5,338,376.4,334.8z"/>
	<path class="st11" d="M381.5,349.8c0,0.9-0.7,1.6-1.6,1.6c-0.9,0-1.6-0.7-1.6-1.6c0-0.9,0.7-1.6,1.6-1.6
		C380.8,348.2,381.5,348.9,381.5,349.8z"/>
	
		<radialGradient id="SVGID_16_" cx="267.4994" cy="240.0237" r="48.4898" gradientTransform="matrix(1.6816 0 0 -0.6887 -156.2328 625.9056)" gradientUnits="userSpaceOnUse">
		<stop  offset="0" style="stop-color:#BCD7D6"/>
		<stop  offset="1" style="stop-color:#FFFFFF"/>
	</radialGradient>
	<ellipse class="st17" cx="293.6" cy="460.6" rx="81.5" ry="33.4"/>
	
		<linearGradient id="SVGID_17_" gradientUnits="userSpaceOnUse" x1="-123" y1="408.1078" x2="146.1608" y2="408.1078" gradientTransform="matrix(1 0 0 -1 0 500)">
		<stop  offset="0" style="stop-color:#D7F8EA"/>
		<stop  offset="0.5053" style="stop-color:#ECF8F2"/>
		<stop  offset="1" style="stop-color:#D7F8EA"/>
	</linearGradient>
	<path class="st18" d="M67.3,170.8H-44.1c-43.4,0-78.9-35.5-78.9-78.9l0,0C-123,48.5-87.5,13-44.1,13H67.3
		c43.4,0,78.9,35.5,78.9,78.9l0,0C146.2,135.3,110.7,170.8,67.3,170.8z"/>
	<g class="st19">
		
			<linearGradient id="SVGID_18_" gradientUnits="userSpaceOnUse" x1="-76.8962" y1="402.1029" x2="140.385" y2="448.2379" gradientTransform="matrix(0.9989 -4.590000e-02 -4.590000e-02 -0.9989 14.7022 499.5375)">
			<stop  offset="3.970000e-02" style="stop-color:#06CFF1"/>
			<stop  offset="1" style="stop-color:#DEFA8E"/>
		</linearGradient>
		<path class="st20" d="M-38.4,122.1c0,0.9-2.6,1.5-8,1.7c-5.4,0.2-8.1-0.1-8.1-1l-0.8-18.4l-11.2,0.5l0.8,18.4c0,0.9-2.6,1.5-8,1.7
			c-5.4,0.2-8.1-0.1-8.1-1L-84.4,71c0-1.1,2.6-1.8,8-2.1c5.4-0.2,8.1,0.2,8.2,1.3l0.9,18.8l11.2-0.5L-57,69.9c0-0.7,1.3-1.3,3.9-1.8
			c1.4-0.2,2.7-0.3,4.1-0.3l4.1,0c2.7,0.2,4,0.7,4.1,1.4L-38.4,122.1z"/>
		
			<linearGradient id="SVGID_19_" gradientUnits="userSpaceOnUse" x1="-73.2247" y1="384.8062" x2="144.0474" y2="430.9392" gradientTransform="matrix(0.9989 -4.590000e-02 -4.590000e-02 -0.9989 14.7022 499.5375)">
			<stop  offset="3.970000e-02" style="stop-color:#06CFF1"/>
			<stop  offset="1" style="stop-color:#DEFA8E"/>
		</linearGradient>
		<path class="st21" d="M-0.6,119.5c-3.3,2.1-7.5,3.3-12.8,3.6c-5.3,0.2-9.8-1.3-13.6-4.8c-3.8-3.4-5.8-8.3-6.1-14.7
			c-0.3-6.4,1.2-11.6,4.5-15.7c3.3-4.1,7.6-6.2,13-6.4c5.3-0.2,9.5,0.9,12.6,3.5c3,2.6,4.6,5.8,4.8,9.7c0.4,8.6-4.4,13.2-14.3,13.7
			l-5.5,0.2c0.1,1.6,0.6,2.7,1.5,3.3c0.9,0.6,2.2,0.8,3.9,0.7c3.7-0.2,7.2-1.2,10.5-3.1c0,0,0.3,0.3,0.8,1.1
			c1.4,2.2,2.1,4.1,2.2,5.7C0.9,118,0.4,119-0.6,119.5z M-11.7,96.9c-0.1-2.2-1.2-3.3-3.4-3.2c-1,0-1.9,0.4-2.6,1
			c-0.7,0.6-1,1.6-1,2.7l0.1,2.5l4.3-0.2C-12.4,99.6-11.6,98.7-11.7,96.9z"/>
		
			<linearGradient id="SVGID_20_" gradientUnits="userSpaceOnUse" x1="-73.6415" y1="386.7091" x2="143.6581" y2="432.8481" gradientTransform="matrix(0.9989 -4.590000e-02 -4.590000e-02 -0.9989 14.7022 499.5375)">
			<stop  offset="3.970000e-02" style="stop-color:#06CFF1"/>
			<stop  offset="1" style="stop-color:#DEFA8E"/>
		</linearGradient>
		<path class="st22" d="M22.7,120c0,0.5-2.7,0.8-8.1,1.1c-4.3,0.1-6.4,0-6.4-0.3L5.6,66.2c0-0.8,2.5-1.3,7.7-1.6
			c4.5,0,6.8,0.1,6.8,0.5L22.7,120z"/>
		
			<linearGradient id="SVGID_21_" gradientUnits="userSpaceOnUse" x1="-72.7059" y1="382.29" x2="144.5927" y2="428.4287" gradientTransform="matrix(0.9989 -4.590000e-02 -4.590000e-02 -0.9989 14.7022 499.5375)">
			<stop  offset="3.970000e-02" style="stop-color:#06CFF1"/>
			<stop  offset="1" style="stop-color:#DEFA8E"/>
		</linearGradient>
		<path class="st23" d="M44.5,119c0,0.5-2.7,0.8-8.1,1.1c-4.3,0.1-6.4,0-6.4-0.3l-2.5-54.5c0-0.8,2.5-1.3,7.7-1.6
			c4.5,0,6.8,0.1,6.8,0.5L44.5,119z"/>
		
			<linearGradient id="SVGID_22_" gradientUnits="userSpaceOnUse" x1="-69.7075" y1="368.2332" x2="147.5634" y2="414.3661" gradientTransform="matrix(0.9989 -4.590000e-02 -4.590000e-02 -0.9989 14.7022 499.5375)">
			<stop  offset="3.970000e-02" style="stop-color:#06CFF1"/>
			<stop  offset="1" style="stop-color:#DEFA8E"/>
		</linearGradient>
		<path class="st24" d="M55,114.4c-3.5-3.5-5.4-8.5-5.7-15.1c-0.3-6.5,1.1-11.7,4.3-15.5c3.2-3.8,7.6-5.9,13.2-6.2
			c5.6-0.3,10.2,1.4,13.7,4.9c3.5,3.5,5.4,8.6,5.7,15.1c0.3,6.5-1.1,11.7-4.3,15.5c-3.1,3.8-7.5,5.9-13.2,6.2
			C63.1,119.6,58.5,118,55,114.4z M67.5,91.1c-3,0.1-4.4,2.7-4.2,7.6c0.2,4.9,1.8,7.3,4.9,7.2c3-0.1,4.4-2.7,4.2-7.6
			C72.1,93.3,70.5,90.9,67.5,91.1z"/>
		
			<linearGradient id="SVGID_23_" gradientUnits="userSpaceOnUse" x1="-70.0598" y1="369.7805" x2="147.2389" y2="415.9192" gradientTransform="matrix(0.9989 -4.590000e-02 -4.590000e-02 -0.9989 14.7022 499.5375)">
			<stop  offset="3.970000e-02" style="stop-color:#06CFF1"/>
			<stop  offset="1" style="stop-color:#DEFA8E"/>
		</linearGradient>
		<path class="st25" d="M92.2,105.4c0-0.4,2.4-0.7,7.4-0.9c4.9-0.2,7.4-0.2,7.4,0.1l0.5,11.5c0,0.5-2.4,0.9-7.4,1.1
			c-4.9,0.2-7.4,0.2-7.4-0.1L92.2,105.4z M105.2,100c0,0.3-1.9,0.6-5.7,0.7c-3.8,0.2-5.7,0.1-5.7-0.1l-3.4-39.4c0-0.4,2.4-0.7,7.3-1
			s7.3-0.1,7.3,0.2L105.2,100z"/>
	</g>
	<path class="st26" d="M103.2,92.3c0,0-3.2-28.6-1.6-29.4C103.2,62.2,103.9,77.8,103.2,92.3z"/>
	<path class="st26" d="M106.3,106.8c0,0.9-0.8,1.7-1.7,1.7c-0.9,0-1.7-0.8-1.7-1.7c0-0.9,0.8-1.7,1.7-1.7
		C105.5,105.1,106.3,105.8,106.3,106.8z"/>
	<path class="st26" d="M83.8,94.3c0-1.6-0.2-6.1-3.5-9.8c-2.8-3.2-6.6-4.2-8.4-4c-0.3,0-1.4,0.2-1.5,0.7c-0.1,1,4.4,1.6,7.8,4.2
		C80.2,86.8,82.5,89.3,83.8,94.3z"/>
	<path class="st26" d="M39.4,64.7c1.8,0,2.4,32,1.9,37.9C40.8,108.3,38.7,64.7,39.4,64.7z"/>
	<path class="st26" d="M-0.2,92.1C-1,87.8-6,82.9-9,83.7c-3.1,0.8,3.7,3.1,6.1,5.2C-0.5,91-0.2,92.1-0.2,92.1z"/>
	<path class="st26" d="M-27.4,116.8c3.6,4,8.7,4.8,8.8,4.6s-5.6-0.9-8.6-5.5c-1.4-2.1-2.8-6-3.7-6c0,0-0.1,0-0.1,0
		C-31.5,110.2-29.6,114.3-27.4,116.8z"/>
	<path class="st26" d="M-40.5,116c-1.1,1.6-1.3-38.9-2-42.8c0,0,0,0,0-0.3c0-0.3,0-0.8,0-1.8c0-0.2-0.2-1-0.4-1.2
		c-1.5-1.4-8.1-0.7-5.3-1c2.5-0.3,5.4-0.1,6.1,0.2c0.3,0.1,0.3,0.7,0.4,1C-40.3,78-39,113.9-40.5,116z"/>
</g>
<path class="st26" d="M175.1,155c-1.1,0.8-8.4-13.4-26.7-23.2c-10.3-5.5-18.7-6.7-18.5-7.7c0.3-1.2,12.3-1.6,23.2,3.8
	C169.4,136.2,176.2,154.1,175.1,155z"/>
<circle class="st26" cx="176.4" cy="160.5" r="1.2"/>
<ellipse class="st26" cx="78.2" cy="124.4" rx="8.8" ry="2"/>
<path class="st26" d="M97.8,124.4c0,0.6-1.1,1.1-2.4,1.1c-1.3,0-2.4-0.5-2.4-1.1c0-0.6,1.1-1.1,2.4-1.1S97.8,123.8,97.8,124.4z"/>
<path class="st26" d="M51.6,159.7c0.2,3.1,0.2,5.6-0.1,5.6c-0.2,0-0.5-2.5-0.7-5.5c-0.2-3.1-0.2-5.6,0.1-5.6
	C51.1,154.1,51.5,156.6,51.6,159.7z"/>
<path class="st26" d="M163.7,220.3c1.4,4,2.9,6.4,2.6,6.6c-0.4,0.2-3-2.3-4.5-5.7c-2.7-5.9-1.2-12.2-0.7-12.2
	C161.6,209,161.2,213.5,163.7,220.3z"/>
</svg>
